<?xml version="1.0" encoding="UTF-8"?>
<svg version="1.1" xmlns="http://www.w3.org/2000/svg" width="413" height="350">
<path d="M0 0 C3.11873561 0.52125984 6.06558798 0.81133073 9.23828125 0.65625 C9.23828125 1.31625 9.23828125 1.97625 9.23828125 2.65625 C11.54828125 2.98625 13.85828125 3.31625 16.23828125 3.65625 C16.23828125 4.31625 16.23828125 4.97625 16.23828125 5.65625 C16.76292969 5.78 17.28757813 5.90375 17.828125 6.03125 C31.95157353 9.7912363 44.67884766 16.83896252 56.23828125 25.65625 C57.63626953 26.71972656 57.63626953 26.71972656 59.0625 27.8046875 C80.3409184 44.62101245 96.68166626 66.7850729 105.23828125 92.65625 C105.23828125 93.64625 105.23828125 94.63625 105.23828125 95.65625 C105.89828125 95.98625 106.55828125 96.31625 107.23828125 96.65625 C107.80078125 98.921875 107.80078125 98.921875 108.23828125 101.90625 C108.38265625 102.86015625 108.52703125 103.8140625 108.67578125 104.796875 C108.86140625 106.07046875 109.04703125 107.3440625 109.23828125 108.65625 C109.48421021 110.0625769 109.48421021 110.0625769 109.73510742 111.49731445 C111.08910074 119.49356197 111.58975495 127.23891415 111.55078125 135.34375 C111.5458667 136.56618408 111.54095215 137.78861816 111.53588867 139.0480957 C111.40991216 148.84390033 110.56123269 158.14008113 108.23828125 167.65625 C108.0666748 168.36249512 107.89506836 169.06874023 107.71826172 169.79638672 C101.65345639 193.86591349 90.00961113 213.50834037 73.23828125 231.65625 C72.5525 232.42453125 71.86671875 233.1928125 71.16015625 233.984375 C49.9121019 256.71055487 15.65895062 270.66678416 -15.19873047 271.78027344 C-36.86284166 272.22604837 -55.73505786 270.53316846 -76.49609375 263.9609375 C-79.56409417 262.99636668 -82.58309842 262.18602006 -85.76171875 261.65625 C-85.76171875 260.99625 -85.76171875 260.33625 -85.76171875 259.65625 C-86.96828125 259.3159375 -86.96828125 259.3159375 -88.19921875 258.96875 C-92.00354511 257.56715608 -95.18306015 255.71839702 -98.61328125 253.58203125 C-101.25540732 252.44351511 -102.09634996 252.68568075 -104.76171875 253.65625 C-106.4652734 255.02884539 -106.4652734 255.02884539 -108.00390625 256.78125 C-108.59558594 257.40515625 -109.18726563 258.0290625 -109.796875 258.671875 C-111.01983229 259.99090325 -112.2386196 261.3138105 -113.453125 262.640625 C-118.02433894 267.43990385 -118.02433894 267.43990385 -121.95703125 268.59375 C-124.2247931 268.64428508 -126.49339391 268.65625 -128.76171875 268.65625 C-128.82488281 269.2853125 -128.88804687 269.914375 -128.953125 270.5625 C-130.01212757 277.96437057 -132.59885617 281.45690075 -137.76171875 286.65625 C-138.71251894 287.70599304 -139.65743892 288.76108032 -140.59765625 289.8203125 C-141.58977267 290.93235508 -142.58196014 292.04433428 -143.57421875 293.15625 C-144.29436157 293.96811768 -144.29436157 293.96811768 -145.02905273 294.79638672 C-146.23250054 296.12122467 -147.49296747 297.39381092 -148.76171875 298.65625 C-149.42171875 298.65625 -150.08171875 298.65625 -150.76171875 298.65625 C-150.76171875 299.31625 -150.76171875 299.97625 -150.76171875 300.65625 C-152.38146434 302.36855248 -154.05761335 304.02788262 -155.76171875 305.65625 C-159.02390134 308.83886716 -161.94149266 312.07879618 -164.76171875 315.65625 C-163.99730469 315.78676758 -163.23289062 315.91728516 -162.4453125 316.05175781 C-123.93015312 322.6679299 -123.93015312 322.6679299 -116.76171875 326.65625 C-117.046875 328.55078125 -117.046875 328.55078125 -117.76171875 330.65625 C-123.09182249 333.27284638 -127.85775424 334.05040141 -133.7578125 334.34765625 C-134.41910156 334.44949219 -135.08039063 334.55132812 -135.76171875 334.65625 C-136.09171875 335.31625 -136.42171875 335.97625 -136.76171875 336.65625 C-139.02734375 337 -139.02734375 337 -142.01171875 337.15625 C-147.66965106 337.52759401 -153.1678715 338.29490028 -158.75390625 339.25390625 C-161.79425472 339.66060221 -164.69824111 339.72483532 -167.76171875 339.65625 C-168.09171875 340.31625 -168.42171875 340.97625 -168.76171875 341.65625 C-174.1510929 341.73089507 -179.54016027 341.78508434 -184.92993164 341.82104492 C-186.76006316 341.83604997 -188.59015921 341.85646059 -190.42016602 341.88256836 C-193.06405433 341.91931906 -195.70746367 341.93605937 -198.3515625 341.94921875 C-199.15818832 341.96470261 -199.96481415 341.98018646 -200.79588318 341.99613953 C-211.37698683 341.99921287 -219.99756031 337.94290419 -227.7421875 330.83984375 C-233.10508285 325.17964503 -236.22949104 318.91407166 -237.19921875 311.15625 C-234.94674301 293.13644411 -221.79258623 283.68611215 -208.8515625 272.49609375 C-206.11801276 270.08954809 -203.44059521 267.62320051 -200.76171875 265.15625 C-196.82877791 261.53521525 -192.86363405 257.96179308 -188.81640625 254.46875 C-187.23763062 253.0760658 -185.68511797 251.65356509 -184.14453125 250.21875 C-169.70505223 236.7792349 -169.70505223 236.7792349 -162.76171875 235.65625 C-160.42057508 235.92938343 -158.08421217 236.25427999 -155.76171875 236.65625 C-154.88746888 233.92421915 -154.79741433 232.4331526 -155.26171875 229.53125 C-154.46426074 223.35095044 -150.07561803 219.91023401 -145.76171875 215.65625 C-146.42171875 214.33625 -147.08171875 213.01625 -147.76171875 211.65625 C-147.10171875 211.32625 -146.44171875 210.99625 -145.76171875 210.65625 C-146.365 209.67785156 -146.96828125 208.69945312 -147.58984375 207.69140625 C-158.76171875 189.42435339 -158.76171875 189.42435339 -158.76171875 184.65625 C-159.42171875 184.32625 -160.08171875 183.99625 -160.76171875 183.65625 C-161.51653977 181.33677975 -162.1396436 179.08693212 -162.69921875 176.71875 C-162.8703418 175.99856689 -163.04146484 175.27838379 -163.21777344 174.53637695 C-163.74847404 172.24630996 -164.25753123 169.95228762 -164.76171875 167.65625 C-164.91850098 166.96821289 -165.0752832 166.28017578 -165.23681641 165.57128906 C-169.64049984 145.71415963 -169.37125715 124.44308619 -164.76171875 104.65625 C-164.60606445 103.94275391 -164.45041016 103.22925781 -164.29003906 102.49414062 C-156.9627713 69.58724947 -135.88674317 39.51652501 -107.57250977 21.19165039 C-74.58926411 0.55439593 -38.427229 -6.44729039 0 0 Z " fill="#0C2E54" transform="translate(237.76171875,8.34375)"/>
<path d="M0 0 C2.63619956 2.23698297 5.19845309 4.5432244 7.75366211 6.87255859 C8.75139648 7.74654297 8.75139648 7.74654297 9.76928711 8.63818359 C23.16663577 21.03386132 32.4809308 39.33187217 36.75366211 56.87255859 C37.09010742 58.22607422 37.09010742 58.22607422 37.43334961 59.60693359 C42.65952144 84.95028742 37.30116827 112.04445616 23.75366211 133.87255859 C21.26173336 137.37348916 18.56809369 140.62799691 15.75366211 143.87255859 C15.11170898 144.67048828 14.46975586 145.46841797 13.80834961 146.29052734 C-2.35854435 165.62318191 -26.77331354 177.40322068 -51.56665039 180.58740234 C-78.34037833 182.66222415 -102.18033032 177.94346572 -125.24633789 163.87255859 C-126.11420425 163.41656784 -126.98207062 162.96057709 -127.87623596 162.49076843 C-131.68946102 158.2783659 -130.98375244 153.76280505 -130.97265625 148.27026367 C-130.98944931 147.08444702 -131.00624237 145.89863037 -131.02354431 144.67687988 C-131.062909 141.42636662 -131.07943222 138.1768117 -131.08262324 134.92608857 C-131.08618117 132.89235958 -131.09686288 130.85879707 -131.11010933 128.82510948 C-131.15636685 121.72127062 -131.17678652 114.61790048 -131.17285156 107.51391602 C-131.16985233 100.90688351 -131.22251161 94.30189854 -131.30156988 87.69538385 C-131.36713201 82.01273469 -131.39376337 76.33075128 -131.39057451 70.64772719 C-131.38930407 67.25807487 -131.40329106 63.87023993 -131.45646477 60.48096657 C-131.50560777 56.69287491 -131.49103715 52.91000657 -131.4609375 49.12182617 C-131.5030838 47.45457741 -131.5030838 47.45457741 -131.54608154 45.75364685 C-131.45005827 40.98494443 -131.18610715 38.02609558 -128.11465645 34.25598717 C-125.58544578 31.95043389 -123.00597543 29.89399857 -120.24633789 27.87255859 C-119.35458327 27.13037992 -118.46282866 26.38820124 -117.54405117 25.6235323 C-115.24633789 23.87255859 -115.24633789 23.87255859 -113.24633789 23.87255859 C-112.91633789 44.00255859 -112.58633789 64.13255859 -112.24633789 84.87255859 C-107.83119441 83.9895299 -106.42642277 83.60620793 -103.03930664 81.14990234 C-102.28842773 80.61171875 -101.53754883 80.07353516 -100.76391602 79.51904297 C-99.99499023 78.95507812 -99.22606445 78.39111328 -98.43383789 77.81005859 C-97.64557617 77.24222656 -96.85731445 76.67439453 -96.04516602 76.08935547 C-94.10660707 74.69124326 -92.17406565 73.28554777 -90.24633789 71.87255859 C-87.46629023 73.18944348 -85.01531363 74.66269892 -82.53149414 76.47412109 C-81.84506836 76.96396484 -81.15864258 77.45380859 -80.45141602 77.95849609 C-79.02188833 78.98535828 -77.59738323 80.01924853 -76.17797852 81.06005859 C-75.49026367 81.54732422 -74.80254883 82.03458984 -74.09399414 82.53662109 C-73.47532471 82.98473145 -72.85665527 83.4328418 -72.21923828 83.89453125 C-69.86671387 85.24268437 -69.86671387 85.24268437 -65.24633789 84.87255859 C-65.24633789 64.41255859 -65.24633789 43.95255859 -65.24633789 22.87255859 C-41.81633789 22.87255859 -18.38633789 22.87255859 5.75366211 22.87255859 C0.88549503 16.27678464 0.88549503 16.27678464 -2.24633789 14.87255859 C-3.7117154 14.76170673 -5.18188779 14.71134337 -6.65132141 14.69174194 C-7.57766891 14.67736084 -8.50401642 14.66297974 -9.45843506 14.64816284 C-10.98793793 14.63234665 -10.98793793 14.63234665 -12.54833984 14.61621094 C-13.62014999 14.60160828 -14.69196014 14.58700562 -15.79624939 14.57196045 C-25.71235084 14.44567169 -35.62926426 14.37713523 -45.54600239 14.32411766 C-52.20599865 14.28841334 -58.86444683 14.23525872 -65.52392578 14.13867188 C-71.96490491 14.04553522 -78.40481158 13.99714349 -84.84642601 13.97972488 C-87.29476946 13.96568012 -89.74307771 13.93615397 -92.19103432 13.89042282 C-106.522865 13.63588846 -116.56890456 13.58391735 -127.24633789 23.87255859 C-128.97052448 25.3160281 -130.69887359 26.7545613 -132.43383789 28.18505859 C-135.765143 31.13317091 -137.98539007 33.6066317 -138.50805092 38.14513016 C-138.51358168 38.98211819 -138.51911243 39.81910622 -138.52481079 40.68145752 C-138.53597427 41.64616974 -138.54713776 42.61088196 -138.55863953 43.60482788 C-138.56079971 44.65643097 -138.5629599 45.70803406 -138.56518555 46.79150391 C-138.57523117 47.90399506 -138.58527679 49.01648621 -138.59562683 50.16268921 C-138.62653209 53.84201539 -138.6435146 57.52126855 -138.66040039 61.20068359 C-138.6791061 63.75088126 -138.69867906 66.3010727 -138.71908569 68.85125732 C-138.76522246 74.87889733 -138.80260804 80.90653027 -138.83575857 86.93425059 C-138.87399297 93.79763251 -138.92339965 100.66091978 -138.97374272 107.5242219 C-139.07703524 121.64026392 -139.16630433 135.75636691 -139.24633789 149.87255859 C-140.36559179 148.93699795 -141.48147407 147.99740285 -142.59594727 147.05615234 C-143.52860413 146.27195923 -143.52860413 146.27195923 -144.48010254 145.47192383 C-159.4294413 131.93496644 -167.3710862 107.9178298 -168.37182617 88.42871094 C-169.39782635 60.24206282 -162.97600298 35.7173447 -144.24633789 13.87255859 C-143.80161133 13.28345703 -143.35688477 12.69435547 -142.89868164 12.08740234 C-128.4325852 -6.62562149 -102.12820245 -18.22991951 -79.40258789 -21.71728516 C-51.17009503 -24.88068496 -22.21800309 -18.22548479 0 0 Z " fill="#FCFDFD" transform="translate(274.246337890625,61.12744140625)"/>
<path d="M0 0 C1.53380162 1.31839463 3.05486994 2.65175544 4.5625 4 C5.37847656 4.68578125 6.19445312 5.3715625 7.03515625 6.078125 C18.04056294 15.5356306 25.95029955 26.23161293 32.5625 39 C33.119375 40.0725 33.67625 41.145 34.25 42.25 C45.94016168 66.09792983 48.05395136 98.24403162 39.48291016 123.51708984 C34.48155526 137.0088085 28.20640113 149.26216381 18.5625 160 C18.10649414 160.50821289 17.65048828 161.01642578 17.18066406 161.54003906 C-2.24528864 182.85925551 -30.6879809 197.16831969 -59.66796875 198.90625 C-60.58191406 198.9371875 -61.49585938 198.968125 -62.4375 199 C-63.52675781 199.0515625 -64.61601562 199.103125 -65.73828125 199.15625 C-93.59543681 199.87437216 -122.23988201 191.52438375 -143.4375 173 C-144.37980469 172.20078125 -145.32210937 171.4015625 -146.29296875 170.578125 C-166.00395283 153.49842337 -179.48510335 129.08317797 -182.19140625 102.96875 C-184.07984613 72.51391011 -178.1421206 42.47050503 -157.4375 19 C-156.42429687 17.78957031 -156.42429687 17.78957031 -155.390625 16.5546875 C-117.02497718 -28.11188789 -46.90643753 -36.75068236 0 0 Z M-137.4375 11 C-138.14390625 11.54011719 -138.8503125 12.08023438 -139.578125 12.63671875 C-157.21766492 26.87024995 -169.3074363 50.968228 -172.15625 73.23828125 C-174.43862882 103.76509801 -168.68247194 128.86472498 -149.296875 152.9765625 C-147.47778418 154.95616134 -145.60286408 156.42115885 -143.4375 158 C-143.43530016 157.12700791 -143.43530016 157.12700791 -143.43305588 156.23637962 C-143.39597664 142.06398078 -143.3369473 127.89181482 -143.25359726 113.71961021 C-143.21381668 106.86596671 -143.18141932 100.01243786 -143.16650391 93.15869141 C-143.15209001 86.54497769 -143.11696758 79.93158308 -143.06919098 73.31801224 C-143.05434884 70.79427808 -143.04645737 68.2704932 -143.04561615 65.74671555 C-143.0432534 62.21275657 -143.01622709 58.67978511 -142.98339844 55.14599609 C-142.9884288 54.10158356 -142.99345917 53.05717102 -142.99864197 51.98110962 C-142.91459929 46.13699537 -142.41964211 42.59517747 -138.4375 38 C-135.703125 35.40234375 -135.703125 35.40234375 -132.6875 32.9375 C-131.70265625 32.12152344 -130.7178125 31.30554688 -129.703125 30.46484375 C-128.61985662 29.63628892 -127.53111219 28.81485327 -126.4375 28 C-125.88328652 27.56731906 -125.32907305 27.13463812 -124.75806522 26.68884563 C-119.03324966 22.62247699 -114.25220618 22.27866173 -107.35913086 22.3371582 C-106.27680679 22.32679031 -105.19448273 22.31642242 -104.07936096 22.30574036 C-100.51996391 22.27874871 -96.96180554 22.28831492 -93.40234375 22.30078125 C-90.91947589 22.29487008 -88.43661088 22.28762242 -85.95375061 22.27909851 C-80.75799676 22.26723217 -75.56267169 22.27390475 -70.36694336 22.29321289 C-63.71297873 22.31611653 -57.06079544 22.28929662 -50.40688229 22.24815083 C-45.28267255 22.22256387 -40.15876776 22.22515505 -35.03451729 22.23604393 C-32.58134362 22.23752946 -30.12814645 22.22985418 -27.67503166 22.21279335 C-24.2447271 22.19280513 -20.81667571 22.21122531 -17.38647461 22.23950195 C-16.37692719 22.22578552 -15.36737976 22.21206909 -14.32723999 22.19793701 C-8.30514485 22.29702249 -5.03151104 23.26955251 -0.68148136 27.51892376 C0.5625 29 0.5625 29 1.5625 31 C-21.8675 31 -45.2975 31 -69.4375 31 C-69.4375 51.46 -69.4375 71.92 -69.4375 93 C-75.05931464 93 -75.05931464 93 -78.5390625 90.41015625 C-79.27640625 89.87326172 -80.01375 89.33636719 -80.7734375 88.78320312 C-81.52882813 88.21537109 -82.28421875 87.64753906 -83.0625 87.0625 C-84.57319552 85.94606539 -86.08612602 84.832647 -87.6015625 83.72265625 C-88.26623535 83.22515869 -88.9309082 82.72766113 -89.61572266 82.21508789 C-91.52972479 80.82296606 -91.52972479 80.82296606 -94.4375 80 C-96.58213708 81.07693368 -96.58213708 81.07693368 -98.78125 82.74609375 C-99.61527344 83.33583984 -100.44929688 83.92558594 -101.30859375 84.53320312 C-102.60990234 85.47583008 -102.60990234 85.47583008 -103.9375 86.4375 C-105.65176526 87.67161815 -107.37033454 88.89978619 -109.09375 90.12109375 C-110.23553711 90.94758423 -110.23553711 90.94758423 -111.40039062 91.79077148 C-113.4375 93 -113.4375 93 -116.4375 93 C-116.7675 72.87 -117.0975 52.74 -117.4375 32 C-127.34071623 36.82857073 -127.34071623 36.82857073 -134.4375 45 C-136.77844766 53.27142748 -136.22462334 62.20624641 -136.08493686 70.72209072 C-136.0404793 74.11809234 -136.06262506 77.51379075 -136.07472229 80.90997314 C-136.08461024 86.60642759 -136.0421079 92.30064571 -135.9675293 97.99658203 C-135.88210103 104.56832271 -135.87884073 111.13622951 -135.9195208 117.70831275 C-135.95701762 124.05463248 -135.93779362 130.39956685 -135.89247322 136.7457962 C-135.87415503 139.43655297 -135.87521345 142.12625006 -135.89214897 144.81700897 C-135.90343765 148.57666553 -135.8500403 152.32998187 -135.77905273 156.08886719 C-135.79458191 157.1965596 -135.81011108 158.30425201 -135.82611084 159.44551086 C-135.68150196 164.01782378 -135.55860754 166.85732577 -132.26997566 170.20922089 C-129.72737181 172.02198057 -127.20166628 173.55178916 -124.4375 175 C-123.67860694 175.4182391 -122.91971388 175.8364782 -122.13782406 176.2673912 C-120.18384478 177.32019441 -118.20647496 178.26593602 -116.1875 179.1875 C-115.46151611 179.52281738 -114.73553223 179.85813477 -113.98754883 180.20361328 C-107.2969936 183.20920755 -100.59657604 185.35523041 -93.4375 187 C-92.52613281 187.22429687 -91.61476563 187.44859375 -90.67578125 187.6796875 C-64.86588658 193.05521478 -35.87244374 187.67440899 -13.4375 174 C-8.8576903 170.96006114 -4.63724273 167.53954539 -0.4375 164 C0.44550781 163.28070313 1.32851563 162.56140625 2.23828125 161.8203125 C20.05158096 146.69424463 31.30012696 124.76776609 34.28125 101.6640625 C36.46626457 73.1981782 30.78659353 46.23547694 12 24.0625 C10.21331662 22.01564354 8.3950668 20.00670211 6.5625 18 C5.94503906 17.31164062 5.32757813 16.62328125 4.69140625 15.9140625 C-12.67596817 -2.49452142 -38.79202185 -13.08442244 -63.79296875 -14.3515625 C-91.66267823 -15.10810246 -115.65381791 -6.4710167 -137.4375 11 Z " fill="#09284C" transform="translate(278.4375,53)"/>
<path d="M0 0 C1.27012939 0.00563965 2.54025879 0.0112793 3.84887695 0.01708984 C39.73783211 0.47817036 72.02999615 15.58364989 97.0546875 41.25 C114.9345574 60.6675133 125.11469355 84.4012519 128.8125 110.3125 C128.998125 111.46621094 129.18375 112.61992187 129.375 113.80859375 C133.20716174 144.50010342 124.01992225 177.37452806 105.4375 201.9375 C81.41205617 231.56888072 50.753473 248.00508728 12.8125 252.3125 C-21.15435658 254.90499489 -56.13628453 244.94294097 -82.3046875 222.875 C-106.63293159 201.24989414 -123.70747455 173.4936365 -126.1875 140.3125 C-126.80731672 125.20987295 -127.14061383 109.99858865 -123.1875 95.3125 C-122.99945801 94.60544922 -122.81141602 93.89839844 -122.61767578 93.16992188 C-113.92324713 61.76760996 -92.86646175 33.74679487 -64.6875 17.21875 C-55.24742414 12.07728011 -45.75841563 7.52458063 -35.4375 4.4375 C-34.80166992 4.24647705 -34.16583984 4.0554541 -33.51074219 3.85864258 C-22.49506832 0.79022913 -11.39242558 -0.05337459 0 0 Z M-85.8828125 54.1875 C-106.52185462 77.91924262 -113.61212505 107.62603601 -112.08349609 138.40673828 C-110.27091588 164.18492459 -96.52611779 190.31151733 -77.1875 207.3125 C-76.13755859 208.240625 -76.13755859 208.240625 -75.06640625 209.1875 C-50.85458783 229.54292041 -19.74905586 238.30727112 11.64453125 236.03515625 C28.55955086 234.26439149 44.0620348 229.8308072 58.8125 221.3125 C59.42464355 220.96171387 60.03678711 220.61092773 60.66748047 220.24951172 C69.73541244 214.96371853 77.39746276 208.71723858 84.8125 201.3125 C86.1428125 199.99958984 86.1428125 199.99958984 87.5 198.66015625 C94.02115898 191.89047749 98.5464167 184.59588853 102.8125 176.3125 C103.35777344 175.30832031 103.90304687 174.30414063 104.46484375 173.26953125 C112.12151163 158.20946948 114.27793631 142.63054598 114.3125 125.9375 C114.31878418 124.61967529 114.32506836 123.30185059 114.33154297 121.9440918 C114.01672276 97.4996779 105.03379288 73.69252007 88.8125 55.3125 C88.11382812 54.48234375 87.41515625 53.6521875 86.6953125 52.796875 C68.18927655 31.32723898 40.71314189 17.682523 12.6171875 14.59375 C-25.65925695 11.76427977 -59.68994415 26.24844043 -85.8828125 54.1875 Z " fill="#A2BBCC" transform="translate(208.1875,15.6875)"/>
<path d="M0 0 C2.75812105 2.21620284 5.18160598 4.62336526 7.6640625 7.140625 C7.10875823 7.14024797 6.55345396 7.13987095 5.98132229 7.1394825 C-7.5488892 7.13235626 -21.07868142 7.15872384 -34.60875797 7.2209034 C-41.15194769 7.24996592 -47.69477887 7.26799228 -54.23803711 7.26074219 C-60.55362918 7.2541513 -66.86851261 7.27662198 -73.18395805 7.31917953 C-75.59243688 7.33031478 -78.00098753 7.33100724 -80.40947151 7.32104874 C-83.78556559 7.30887944 -87.15949565 7.33395443 -90.53540039 7.36767578 C-91.52946396 7.35545486 -92.52352753 7.34323395 -93.54771423 7.3306427 C-99.45324419 7.4368171 -102.65864157 8.35078455 -106.85365963 12.60162163 C-107.34281133 13.10949274 -107.83196302 13.61736385 -108.3359375 14.140625 C-109.44930566 15.02640049 -110.57646733 15.89540651 -111.72265625 16.73828125 C-112.26857422 17.14755859 -112.81449219 17.55683594 -113.37695312 17.97851562 C-114.48402919 18.80192808 -115.59345147 19.6221945 -116.70507812 20.43945312 C-120.72905421 23.46820088 -124.06392332 26.59659664 -126.3359375 31.140625 C-126.43995679 32.66077993 -126.48243539 34.18535034 -126.49415588 35.70901489 C-126.5039447 36.67097778 -126.51373352 37.63294067 -126.52381897 38.62405396 C-126.52957443 39.6828476 -126.5353299 40.74164124 -126.54125977 41.83251953 C-126.55610916 43.50081818 -126.55610916 43.50081818 -126.57125854 45.20281982 C-126.60294205 48.89300378 -126.62765806 52.58320063 -126.65234375 56.2734375 C-126.67290736 58.8264907 -126.69390367 61.37954045 -126.71531677 63.93258667 C-126.76494293 69.97446207 -126.81019234 76.01635504 -126.85333914 82.05827892 C-126.90269817 88.93609777 -126.95762124 95.81386864 -127.01301873 102.69164109 C-127.12686276 116.84125762 -127.23369652 130.99092022 -127.3359375 145.140625 C-128.4551914 144.20506436 -129.57107368 143.26546925 -130.68554688 142.32421875 C-131.61820374 141.54002563 -131.61820374 141.54002563 -132.56970215 140.73999023 C-147.51904091 127.20303285 -155.46068581 103.18589621 -156.46142578 83.69677734 C-157.48644568 55.5370598 -151.08408072 30.94889903 -132.3359375 9.140625 C-131.61664063 8.22216797 -131.61664063 8.22216797 -130.8828125 7.28515625 C-125.91958923 1.05260289 -119.23760081 -6.03248668 -111.3359375 -7.859375 C-109.73826199 -8.756784 -108.14227021 -9.65771807 -106.56445312 -10.58959961 C-97.55160591 -15.85223813 -88.57238106 -18.1730172 -78.3359375 -19.859375 C-77.20414062 -20.04886719 -76.07234375 -20.23835938 -74.90625 -20.43359375 C-47.4029629 -23.71352624 -22.36742039 -15.93457389 0 0 Z " fill="#BADDEC" transform="translate(262.3359375,65.859375)"/>
<path d="M0 0 C0.66 0 1.32 0 2 0 C16.61244745 18.30957271 17.11004985 43.27576295 15.79296875 65.4921875 C13.23402969 87.14474878 2.72794817 108.98423442 -12 125 C-13.99628756 126.33888526 -15.99564915 127.67321613 -18 129 C-18.33 129.99 -18.66 130.98 -19 132 C-25.48669141 136.98217363 -33.08088387 139.99899186 -40.6875 142.8125 C-41.47044434 143.1022168 -42.25338867 143.39193359 -43.06005859 143.69042969 C-67.7887873 152.50247194 -96.90814622 151.38823053 -121 141 C-121 140.34 -121 139.68 -121 139 C-122.66289062 138.18595703 -122.66289062 138.18595703 -124.359375 137.35546875 C-125.82302269 136.63302726 -127.2865585 135.91035908 -128.75 135.1875 C-129.47960937 134.83107422 -130.20921875 134.47464844 -130.9609375 134.10742188 C-138.5626929 130.34109761 -138.5626929 130.34109761 -141 128 C-141 127.01 -141 126.02 -141 125 C-139.22876097 125.43585463 -137.45803711 125.87380275 -135.6875 126.3125 C-134.58148438 126.58578125 -133.47546875 126.8590625 -132.3359375 127.140625 C-129.46704276 127.87968453 -126.64796789 128.70749738 -123.8125 129.5625 C-94.97577838 137.3230908 -61.99715746 134.44944677 -35 122 C-36.23492187 122.26554687 -37.46984375 122.53109375 -38.7421875 122.8046875 C-73.83003292 130.19969556 -108.26485977 131.68094038 -141 115 C-141 112.03 -141 109.06 -141 106 C-135.8727332 106.9245891 -131.51081955 108.10948983 -126.8125 110.375 C-110.77652992 117.93577032 -93.55969589 119.40790456 -76.0625 119.3125 C-75.01441666 119.30976578 -75.01441666 119.30976578 -73.94515991 119.30697632 C-50.73387596 119.20515935 -29.67266068 114.00991035 -12 98 C0.33056525 82.73358589 5.58639145 66.79840938 5.375 47.1875 C5.37167664 46.52835602 5.36835327 45.86921204 5.3649292 45.19009399 C5.30710179 35.41859706 4.64967644 26.43543318 2 17 C0.55014485 11.1478574 -0.21990725 6.04744925 0 0 Z " fill="#B9D9E8" transform="translate(287,93)"/>
<path d="M0 0 C0.33 0 0.66 0 1 0 C0.98428955 1.43835205 0.98428955 1.43835205 0.96826172 2.90576172 C0.93210672 6.45780719 0.90911607 10.00983634 0.89013672 13.56201172 C0.88006882 15.10045098 0.86641354 16.63887107 0.84912109 18.17724609 C0.82490683 20.38644133 0.81352509 22.59538395 0.8046875 24.8046875 C0.79436493 25.49432587 0.78404236 26.18396423 0.77340698 26.89450073 C0.77300522 28.59800906 0.87808974 30.30085943 1 32 C1.66 32.66 2.32 33.32 3 34 C3.53076172 35.87255859 3.53076172 35.87255859 3.9296875 38.1484375 C4.08268311 38.98270264 4.23567871 39.81696777 4.39331055 40.67651367 C4.55226807 41.56701416 4.71122559 42.45751465 4.875 43.375 C10.43348771 72.32364493 26.29851416 97.93355044 50.53417969 115.19775391 C63.5261197 123.94749812 77.86969843 130.07873651 93 134 C94.21429688 134.3196875 95.42859375 134.639375 96.6796875 134.96875 C112.74752442 138.57649717 130.93025411 138.69392402 147 135 C147.82886719 134.82855469 148.65773437 134.65710938 149.51171875 134.48046875 C168.1092686 130.06604268 185.41781838 121.278354 200 109 C200.81082031 108.32324219 201.62164062 107.64648438 202.45703125 106.94921875 C220.37948908 91.44945876 233.38301999 69.95635308 239 47 C239.33 47 239.66 47 240 47 C239.19944683 57.00691466 236.31294589 66.94281363 232 76 C233.32 75.67 234.64 75.34 236 75 C234.58578354 80.05408505 232.35096633 83.84455184 229.4375 88.125 C226.39968888 92.30375305 226.39968888 92.30375305 224.5625 97.04296875 C223.59128239 100.42199669 220.93760241 102.69553556 218.5625 105.1875 C218.01754883 105.76411377 217.47259766 106.34072754 216.91113281 106.93481445 C192.65713655 132.34629127 159.707318 146.53474447 124.50634766 147.42602539 C87.97483133 147.57810522 54.65838424 134.43266174 28.5 108.875 C9.51881276 89.79286391 -4.11363098 64.22799946 -4.1875 36.9375 C-4.13709659 30.37131024 -3.93472309 23.80888218 -3.625 17.25 C-3.5789563 16.16126587 -3.5789563 16.16126587 -3.53198242 15.05053711 C-3.23210694 9.71672711 -2.40532584 4.81065169 0 0 Z " fill="#89A7BE" transform="translate(88,121)"/>
<path d="M0 0 C7.3895515 0.869359 13.68019014 6.29713516 18.5234375 11.69921875 C22.05156072 16.19221544 22.05156072 16.19221544 21.8125 19.9375 C21.544375 20.618125 21.27625 21.29875 21 22 C18 22 18 22 16.28125 20.3203125 C15.39953125 19.23363281 15.39953125 19.23363281 14.5 18.125 C12.36959371 15.51805546 10.83997143 13.89331428 8 12 C8 12.66 8 13.32 8 14 C8.61875 14.268125 9.2375 14.53625 9.875 14.8125 C12 16 12 16 14 19 C-10.57932386 42.00114323 -10.57932386 42.00114323 -21 51 C-22.11869141 51.98414563 -23.23716035 52.96854417 -24.35546875 53.953125 C-25.59088885 55.03154447 -26.82656792 56.10966734 -28.0625 57.1875 C-28.6404834 57.69917725 -29.2184668 58.21085449 -29.81396484 58.73803711 C-35.33970435 63.52936273 -40.90492414 66.92339243 -48 69 C-48 69.66 -48 70.32 -48 71 C-51.68700366 70.78931408 -53.00512471 69.9954447 -55.8125 67.5 C-58.18579424 64.2769133 -59.03127132 61.49754212 -58.80859375 57.49609375 C-56.32152874 49.81863219 -48.2086395 43.94145426 -42.1875 38.8671875 C-39.43776609 36.5200932 -36.78220225 34.07541934 -34.125 31.625 C-27.89469414 25.89272799 -21.60692619 20.22642675 -15.296875 14.58203125 C-14.41515625 13.79183594 -13.5334375 13.00164062 -12.625 12.1875 C-11.83351562 11.47980469 -11.04203125 10.77210938 -10.2265625 10.04296875 C-8.71634781 8.65728053 -7.2529031 7.21918934 -5.8359375 5.73828125 C-4 4 -4 4 -2 4 C-1.34 2.68 -0.68 1.36 0 0 Z " fill="#2D6598" transform="translate(74,256)"/>
<path d="M0 0 C1.27012939 0.00563965 2.54025879 0.0112793 3.84887695 0.01708984 C39.73783211 0.47817036 72.02999615 15.58364989 97.0546875 41.25 C114.59673601 60.30063974 128.69802991 86.99258318 127.8125 113.3125 C127.4825 113.3125 127.1525 113.3125 126.8125 113.3125 C126.1525 110.0125 125.4925 106.7125 124.8125 103.3125 C124.8125 114.5325 124.8125 125.7525 124.8125 137.3125 C124.4825 137.3125 124.1525 137.3125 123.8125 137.3125 C123.79848145 136.47779175 123.79848145 136.47779175 123.78417969 135.6262207 C123.3668073 115.6148516 120.96787311 96.72706767 112.8125 78.3125 C112.28785156 77.12269531 111.76320313 75.93289062 111.22265625 74.70703125 C97.13075376 44.83219796 72.01472599 25.16556203 41.7578125 13.09375 C28.39175146 8.31239483 14.78853257 6.71796956 0.6875 6.8125 C-0.37984375 6.81514359 -0.37984375 6.81514359 -1.46875 6.81784058 C-20.78829153 6.92376384 -41.76024801 10.36099868 -58.1875 21.3125 C-59.5075 21.3125 -60.8275 21.3125 -62.1875 21.3125 C-62.5175 19.6625 -62.8475 18.0125 -63.1875 16.3125 C-42.5569289 5.9179532 -23.34633549 -0.10937979 0 0 Z " fill="#F1F5F6" transform="translate(208.1875,15.6875)"/>
<path d="M0 0 C10.23 0 20.46 0 31 0 C31 16.5 31 33 31 50 C27.37 47.69 23.74 45.38 20 43 C18.35 42.34 16.7 41.68 15 41 C12.49523205 42.36187383 10.52587278 43.64039755 8.3125 45.375 C2.184375 50 2.184375 50 0 50 C0 33.5 0 17 0 0 Z " fill="#F7CB2F" transform="translate(169,83)"/>
<path d="M0 0 C1.41326065 -0.01062721 1.41326065 -0.01062721 2.85507202 -0.02146912 C4.40274765 -0.01775299 4.40274765 -0.01775299 5.98168945 -0.01396179 C7.61371811 -0.02162819 7.61371811 -0.02162819 9.27871704 -0.02944946 C12.88419049 -0.0433783 16.48947351 -0.04238636 20.0949707 -0.04008484 C22.59456453 -0.04396962 25.0941577 -0.04830384 27.59375 -0.05307007 C32.83603544 -0.06053912 38.07827134 -0.06037356 43.32055664 -0.05497742 C49.38217534 -0.04893393 55.44356213 -0.06125777 61.50514126 -0.08254749 C67.33520504 -0.10227189 73.16517773 -0.10533923 78.99526978 -0.10181236 C81.47686305 -0.10232703 83.95845991 -0.1075918 86.44003296 -0.11762428 C89.90462299 -0.12991243 93.36867109 -0.12324286 96.83325195 -0.11161804 C97.86503571 -0.11926178 98.89681946 -0.12690552 99.95986938 -0.13478088 C101.37313004 -0.12425941 101.37313004 -0.12425941 102.81494141 -0.11352539 C103.63420609 -0.11369313 104.45347076 -0.11386087 105.29756165 -0.1140337 C107.92445914 0.35251607 108.83894368 1.13041847 110.4074707 3.26069641 C110.2824707 5.82319641 110.2824707 5.82319641 109.4074707 8.26069641 C106.23827219 10.37349542 105.47627767 10.5122311 101.85290527 10.52139282 C100.45226585 10.53202003 100.45226585 10.53202003 99.02333069 10.54286194 C98.00089767 10.54038452 96.97846466 10.5379071 95.92504883 10.53535461 C94.84678329 10.54046555 93.76851776 10.54557648 92.65757751 10.55084229 C89.08456918 10.56477066 85.511753 10.56377922 81.9387207 10.56147766 C79.46154712 10.56536247 76.9843742 10.56969669 74.50720215 10.57446289 C69.31198976 10.58193185 64.11684533 10.58162866 58.92163086 10.57637024 C53.57878401 10.57099502 48.2361265 10.57805094 42.89331055 10.59687805 C36.45132971 10.61929071 30.00950731 10.62713748 23.56748962 10.62320518 C21.108225 10.62371984 18.64895674 10.6289844 16.18971252 10.63901711 C12.75625386 10.65130568 9.323342 10.64463544 5.88989258 10.63301086 C4.86745956 10.6406546 3.84502655 10.64829834 2.79161072 10.65617371 C1.8578511 10.64915939 0.92409149 10.64214508 -0.03796387 10.63491821 C-0.8498542 10.63508595 -1.66174454 10.6352537 -2.49823761 10.63542652 C-5.11693146 10.16686551 -6.00284252 9.36111249 -7.5925293 7.26069641 C-7.9675293 4.69819641 -7.9675293 4.69819641 -7.5925293 2.26069641 C-4.41431697 0.14188819 -3.63812662 0.00911622 0 0 Z " fill="#B7D2E1" transform="translate(167.592529296875,158.7393035888672)"/>
<path d="M0 0 C0.66 0.33 1.32 0.66 2 1 C1.67 1.66 1.34 2.32 1 3 C1.76441406 3.13051758 2.52882812 3.26103516 3.31640625 3.39550781 C41.83156563 10.0116799 41.83156563 10.0116799 49 14 C48.71484375 15.89453125 48.71484375 15.89453125 48 18 C42.66989626 20.61659638 37.90396451 21.39415141 32.00390625 21.69140625 C31.34261719 21.79324219 30.68132812 21.89507812 30 22 C29.67 22.66 29.34 23.32 29 24 C26.734375 24.34375 26.734375 24.34375 23.75 24.5 C18.09206769 24.87134401 12.59384725 25.63865028 7.0078125 26.59765625 C3.96746403 27.00435221 1.06347764 27.06858532 -2 27 C-2.33 27.66 -2.66 28.32 -3 29 C-15.87 29 -28.74 29 -42 29 C-42 28.67 -42 28.34 -42 28 C-41.29875 27.89042969 -40.5975 27.78085937 -39.875 27.66796875 C-38.92625 27.50941406 -37.9775 27.35085938 -37 27.1875 C-36.071875 27.03667969 -35.14375 26.88585937 -34.1875 26.73046875 C-26.8269602 25.04367838 -21.87854814 22.63284775 -16.5 17.3125 C-15.66698364 16.51501343 -15.66698364 16.51501343 -14.81713867 15.70141602 C-13.19934477 14.14614327 -11.59835656 12.57520688 -10 11 C-9.16082031 10.18789063 -8.32164063 9.37578125 -7.45703125 8.5390625 C-4.63978632 5.7782651 -2.19488253 3.2923238 0 0 Z " fill="#BDCCD6" transform="translate(72,321)"/>
<path d="M0 0 C1.42392563 -0.00639748 1.42392563 -0.00639748 2.87661743 -0.01292419 C3.92651352 -0.01247101 4.97640961 -0.01201782 6.05812073 -0.0115509 C7.15720764 -0.01490952 8.25629456 -0.01826813 9.38868713 -0.02172852 C13.04226291 -0.03127124 16.69579302 -0.03318327 20.34938049 -0.03425598 C22.87664815 -0.03746618 25.40391561 -0.04083006 27.93118286 -0.04434204 C33.23668423 -0.05034159 38.54216841 -0.05222375 43.84767151 -0.05158997 C49.98646763 -0.05098902 56.12517592 -0.06154243 62.26394981 -0.07733363 C68.16127041 -0.09196522 74.05856407 -0.09557858 79.95590401 -0.09498024 C82.46902386 -0.09616445 84.98214428 -0.10061066 87.49525261 -0.10831261 C91.00326298 -0.11805683 94.51104456 -0.11525656 98.01905823 -0.10920715 C99.06693008 -0.11482666 100.11480194 -0.12044617 101.19442749 -0.12623596 C102.62258286 -0.11994423 102.62258286 -0.11994423 104.07958984 -0.11352539 C104.9097483 -0.11407016 105.73990675 -0.11461493 106.59522152 -0.1151762 C108.60328674 0.13371277 108.60328674 0.13371277 110.60328674 2.13371277 C110.41578674 4.63371277 110.41578674 4.63371277 109.60328674 7.13371277 C106.44314113 9.24047651 105.69520918 9.38520137 102.08668518 9.39440918 C101.16133972 9.40149399 100.23599426 9.4085788 99.28260803 9.4158783 C98.26952576 9.41340088 97.25644348 9.41092346 96.21266174 9.40837097 C95.14414978 9.4134819 94.07563782 9.41859283 92.9747467 9.42385864 C89.43420347 9.43778655 85.89385416 9.43679561 82.35328674 9.43449402 C79.8985334 9.43837885 77.44378072 9.44271308 74.98902893 9.44747925 C69.84089479 9.45494811 64.69282923 9.45464509 59.54469299 9.4493866 C52.93665376 9.44358757 46.32889442 9.46053047 39.72090149 9.48373127 C34.65095876 9.4984379 29.58108394 9.49934456 24.51112366 9.49622154 C22.07418767 9.49673618 19.63724803 9.50200053 17.20033264 9.51203346 C13.79800531 9.52432249 10.39622975 9.51765154 6.99391174 9.50602722 C5.98082947 9.51367096 4.96774719 9.5213147 3.92396545 9.52919006 C2.99862 9.52217575 2.07327454 9.51516144 1.11988831 9.50793457 C-0.08688568 9.50818618 -0.08688568 9.50818618 -1.31803894 9.50844288 C-3.92386508 9.03868121 -4.84449892 8.25225851 -6.39671326 6.13371277 C-5.89149474 0.82891838 -5.13854217 0.01037791 0 0 Z " fill="#B4D0DF" transform="translate(164.39671325683594,183.8662872314453)"/>
<path d="M0 0 C0.66 0 1.32 0 2 0 C3.31073281 8.68360486 3.36602839 17.4076504 3.60546875 26.17382812 C3.66154297 28.00010742 3.66154297 28.00010742 3.71875 29.86328125 C3.74904297 30.96969971 3.77933594 32.07611816 3.81054688 33.21606445 C3.88871828 36.08463315 3.88871828 36.08463315 5 39 C5.12781786 41.67394964 5.04391871 44.32095857 5 47 C3.68 46.67 2.36 46.34 1 46 C1 48.97 1 51.94 1 55 C1.84046875 55.27070313 2.6809375 55.54140625 3.546875 55.8203125 C6.50553755 56.83107731 9.39687045 57.94362328 12.29785156 59.10693359 C41.8345322 70.72804381 72.44446927 68.2249335 103 62 C104.66666667 61.66666667 106.33333333 61.33333333 108 61 C105.29942831 64.39847224 101.63637688 65.56061575 97.6875 67 C96.97980469 67.26127686 96.27210938 67.52255371 95.54296875 67.79174805 C66.07903927 78.33102193 32.27176185 76.00928634 3 66 C2.34 65.67 1.68 65.34 1 65 C2.13072655 68.39217965 2.48480916 68.57145349 5.45703125 70.19140625 C6.50793945 70.77245117 6.50793945 70.77245117 7.58007812 71.36523438 C8.31677734 71.76033203 9.05347656 72.15542969 9.8125 72.5625 C10.53759766 72.96146484 11.26269531 73.36042969 12.00976562 73.77148438 C15.30957764 75.57989004 18.62796863 77.32966274 22 79 C19 80 19 80 15.6015625 78.48828125 C14.27039227 77.77344283 12.94503692 77.04769431 11.625 76.3125 C10.965 75.95994141 10.305 75.60738281 9.625 75.24414062 C7.72084525 74.20671767 5.8633208 73.10858073 4 72 C3.02546875 71.48179687 2.0509375 70.96359375 1.046875 70.4296875 C-2.3519935 66.39515276 -1.56286893 61.89467854 -1.375 56.8125 C-1.36082031 55.78962891 -1.34664062 54.76675781 -1.33203125 53.71289062 C-1.18211535 46.18211535 -1.18211535 46.18211535 0 45 C0.0928726 43.58774954 0.11746772 42.17091066 0.11352539 40.75561523 C0.11344986 39.85475693 0.11337433 38.95389862 0.11329651 38.02574158 C0.10813522 37.04658279 0.10297394 36.06742401 0.09765625 35.05859375 C0.0962413 34.06118668 0.09482635 33.0637796 0.09336853 32.03614807 C0.08775114 28.83656876 0.07519571 25.63705831 0.0625 22.4375 C0.05748724 20.27408955 0.05292395 18.11067801 0.04882812 15.94726562 C0.03777607 10.63148675 0.02102104 5.31574829 0 0 Z " fill="#EFF6F8" transform="translate(145,153)"/>
<path d="M0 0 C7.3895515 0.869359 13.68019014 6.29713516 18.5234375 11.69921875 C22.05156072 16.19221544 22.05156072 16.19221544 21.8125 19.9375 C21.544375 20.618125 21.27625 21.29875 21 22 C18 22 18 22 16.31640625 20.35546875 C15.73761719 19.64003906 15.15882812 18.92460937 14.5625 18.1875 C12.2433239 15.33911593 10.01947904 13.103681 7 11 C7 11.66 7 12.32 7 13 C6.34 13 5.68 13 5 13 C5 13.66 5 14.32 5 15 C3.77734375 16.234375 3.77734375 16.234375 1.9375 17.75 C-2.33336624 21.3737653 -6.42059048 25.16446823 -10.5 29 C-15.0500849 33.27073293 -19.61181991 37.50082483 -24.375 41.53515625 C-26.07699935 43.06941047 -27.54314234 44.72426597 -29.0625 46.4375 C-32 49 -32 49 -35.75 49.5625 C-37.35875 49.2840625 -37.35875 49.2840625 -39 49 C-39.66 48.01 -40.32 47.02 -41 46 C-40.07058594 45.21496094 -39.14117187 44.42992187 -38.18359375 43.62109375 C-31.89633925 38.2868654 -25.68486198 32.98494267 -20 27 C-18.66666667 25.66666667 -17.33333333 24.33333333 -16 23 C-16.66 23 -17.32 23 -18 23 C-18.33 22.34 -18.66 21.68 -19 21 C-20.32 22.32 -21.64 23.64 -23 25 C-23.66 24.67 -24.32 24.34 -25 24 C-20.43697698 19.32775568 -15.78449183 14.85825331 -10.82421875 10.609375 C-9.17528084 9.15463749 -7.64510131 7.64946794 -6.125 6.0625 C-4 4 -4 4 -2 4 C-1.34 2.68 -0.68 1.36 0 0 Z " fill="#699FCB" transform="translate(74,256)"/>
<path d="M0 0 C0.99 1.485 0.99 1.485 2 3 C1.55269531 3.50789063 1.10539062 4.01578125 0.64453125 4.5390625 C-0.26232422 5.57160156 -0.26232422 5.57160156 -1.1875 6.625 C-1.83203125 7.35847656 -2.4765625 8.09195312 -3.140625 8.84765625 C-4.6130474 10.55207797 -6.0348584 12.3002067 -7.4375 14.0625 C-9.45059164 16.37019042 -11.30665168 18.17344919 -13.625 20.125 C-17.32327744 23.27878918 -20.64528671 26.68352488 -23.9375 30.25 C-24.66477295 31.02947998 -24.66477295 31.02947998 -25.40673828 31.82470703 C-27.58402007 34.21296874 -28.96559719 35.89679158 -30 39 C-30.66 39 -31.32 39 -32 39 C-32.32871094 39.80244141 -32.32871094 39.80244141 -32.6640625 40.62109375 C-34.46809451 43.83353671 -36.87811581 46.38492024 -39.375 49.0625 C-39.85710938 49.59166016 -40.33921875 50.12082031 -40.8359375 50.66601562 C-47.23808025 57.59877075 -47.23808025 57.59877075 -51.3671875 58.5390625 C-58.03026071 58.76739211 -58.03026071 58.76739211 -60.984375 56.4296875 C-62.46942356 54.68298753 -63.78208721 52.94073909 -65 51 C-62.58108887 47.95006858 -60.60280853 46.77152338 -56.9375 45.8125 C-47.57204538 42.95083331 -40.51369982 34.63436153 -33.48120117 28.08569336 C-30.25863487 25.09825216 -26.94283803 22.29797332 -23.5 19.5625 C-18.60779066 15.65157683 -14.25181516 11.36811285 -9.97070312 6.80883789 C-8.70092224 5.4854316 -7.35509989 4.23590129 -6 3 C-5.01 3 -4.02 3 -3 3 C-1.31201173 1.56249809 -1.31201173 1.56249809 0 0 Z " fill="#12416F" transform="translate(88,276)"/>
<path d="M0 0 C1.32 0.66 2.64 1.32 4 2 C3.67 2.66 3.34 3.32 3 4 C3.66 4.33 4.32 4.66 5 5 C4.28457031 5.44988281 3.56914062 5.89976563 2.83203125 6.36328125 C-19.33794736 20.67481984 -36.49492448 39.61032059 -46.40112305 64.27416992 C-47.19481581 66.21409425 -48.08964398 68.11200992 -49 70 C-50.485 70.495 -50.485 70.495 -52 71 C-52 69.68 -52 68.36 -52 67 C-53.65 72.61 -55.3 78.22 -57 84 C-57.33 84 -57.66 84 -58 84 C-57.88323231 59.71231971 -39.68023747 34.95882284 -23.51074219 18.47900391 C-16.36608264 11.48444225 -8.52933596 5.22339179 0 0 Z " fill="#C3D5DF" transform="translate(143,33)"/>
<path d="M0 0 C0.99120346 -0.00960754 1.98240692 -0.01921509 3.00364685 -0.02911377 C4.07760208 -0.03336365 5.15155731 -0.03761353 6.25805664 -0.04199219 C7.35791397 -0.04769226 8.4577713 -0.05339233 9.59095764 -0.05926514 C11.92032913 -0.06872275 14.24971405 -0.07525213 16.57910156 -0.07910156 C20.15005687 -0.08881779 23.72043938 -0.11983894 27.29125977 -0.15136719 C29.55102196 -0.15789595 31.81078829 -0.16314692 34.07055664 -0.16699219 C35.14248764 -0.17933899 36.21441864 -0.19168579 37.3188324 -0.20440674 C38.31318802 -0.20140564 39.30754364 -0.19840454 40.33203125 -0.1953125 C41.64535683 -0.20078094 41.64535683 -0.20078094 42.98521423 -0.20635986 C45.71432092 0.24027889 46.6003135 0.96031199 48.23071289 3.16113281 C48.54321289 5.72363281 48.54321289 5.72363281 48.23071289 8.16113281 C45.70975019 10.68209551 44.85828066 10.41778179 41.36962891 10.43579102 C40.35840469 10.44532303 39.34718048 10.45485504 38.30531311 10.4646759 C37.2094841 10.4637645 36.11365509 10.46285309 34.98461914 10.46191406 C33.86256577 10.46619919 32.74051239 10.47048431 31.5844574 10.47489929 C29.20800451 10.48065047 26.83153402 10.48113709 24.45507812 10.47680664 C20.81162576 10.47364877 17.16898652 10.49708975 13.52563477 10.52246094 C11.22029725 10.52473398 8.91495755 10.5254374 6.60961914 10.52441406 C4.96891197 10.53822868 4.96891197 10.53822868 3.2950592 10.55232239 C2.28068283 10.5460936 1.26630646 10.53986481 0.22119141 10.53344727 C-0.67212387 10.53407669 -1.56543915 10.53470612 -2.48582458 10.53535461 C-4.76928711 10.16113281 -4.76928711 10.16113281 -6.59291077 8.83317566 C-7.76928711 7.16113281 -7.76928711 7.16113281 -7.58178711 4.03613281 C-7.31366211 3.08738281 -7.04553711 2.13863281 -6.76928711 1.16113281 C-4.32932353 -0.05884897 -2.72747563 0.02128964 0 0 Z " fill="#B4D0DF" transform="translate(229.769287109375,131.8388671875)"/>
<path d="M0 0 C3 1 3 1 4.0703125 3.07421875 C4.41835938 3.93660156 4.76640625 4.79898438 5.125 5.6875 C7.82127875 11.4253127 11.42077979 14.16859798 17 17 C17.99 17.33 18.98 17.66 20 18 C20 18.66 20 19.32 20 20 C19.25234375 20.37511719 18.5046875 20.75023438 17.734375 21.13671875 C9.71609026 25.30328818 5.84497919 28.73329475 2 37 C1.34 37 0.68 37 0 37 C-1.2890625 35.3203125 -1.2890625 35.3203125 -2.625 33.125 C-3.07101562 32.40570313 -3.51703125 31.68640625 -3.9765625 30.9453125 C-5 29 -5 29 -5 27 C-5.56203125 26.72414063 -6.1240625 26.44828125 -6.703125 26.1640625 C-9.08618794 24.95631972 -11.4179008 23.67823191 -13.75 22.375 C-14.54921875 21.92898437 -15.3484375 21.48296875 -16.171875 21.0234375 C-16.77515625 20.68570313 -17.3784375 20.34796875 -18 20 C-15.4177456 17.28308817 -12.61509336 15.27731006 -9.5234375 13.18359375 C-7.84949692 12.05894057 -7.84949692 12.05894057 -7 10 C-6.01 10 -5.02 10 -4 10 C-3.71125 9.0925 -3.4225 8.185 -3.125 7.25 C-2.23468224 4.67797092 -1.28505587 2.38653234 0 0 Z " fill="#FCC82D" transform="translate(392,87)"/>
<path d="M0 0 C0.66 0 1.32 0 2 0 C2.2475 0.86625 2.495 1.7325 2.75 2.625 C5.79994223 10.85984403 10.5206438 13.97485029 18 18 C17.671875 19.94140625 17.671875 19.94140625 17 22 C15.00458132 22.68025637 13.00382009 23.34490497 11 24 C6.48750492 27.8828446 3.10155943 32.05157906 2 38 C1.34 38 0.68 38 0 38 C-1.296875 35.98828125 -1.296875 35.98828125 -2.75 33.3125 C-6.03903845 27.64671114 -9.19946559 24.64379194 -14.875 21.3125 C-15.926875 20.6628125 -15.926875 20.6628125 -17 20 C-17 19.34 -17 18.68 -17 18 C-15.47097374 17.06773933 -13.89963386 16.20448018 -12.3125 15.375 C-7.12223379 12.37976858 -4.5865423 9.32396623 -2 4 C-1.62875 3.26007812 -1.2575 2.52015625 -0.875 1.7578125 C-0.441875 0.88769531 -0.441875 0.88769531 0 0 Z " fill="#FBC82C" transform="translate(364,47)"/>
<path d="M0 0 C1.0144519 -0.00630432 2.02890381 -0.01260864 3.07409668 -0.019104 C4.72254578 -0.01303131 4.72254578 -0.01303131 6.40429688 -0.00683594 C7.52872192 -0.00874939 8.65314697 -0.01066284 9.81164551 -0.01263428 C12.1923037 -0.01399711 14.57296931 -0.01029388 16.95361328 -0.00195312 C20.60791641 0.00874477 24.26172788 -0.00184538 27.91601562 -0.01464844 C30.22461047 -0.01332686 32.533205 -0.01076451 34.84179688 -0.00683594 C35.94076294 -0.0108844 37.039729 -0.01493286 38.17199707 -0.019104 C39.18644897 -0.01279968 40.20090088 -0.00649536 41.24609375 0 C42.58939758 0.00238678 42.58939758 0.00238678 43.95983887 0.00482178 C46.12304688 0.25878906 46.12304688 0.25878906 48.12304688 2.25878906 C48.37304688 4.75878906 48.37304688 4.75878906 48.12304688 7.25878906 C45.59689837 9.78493756 44.74229075 9.51136609 41.24609375 9.51757812 C39.72441589 9.52703461 39.72441589 9.52703461 38.17199707 9.53668213 C37.07303101 9.53263367 35.97406494 9.52858521 34.84179688 9.52441406 C33.71737183 9.52632751 32.59294678 9.52824097 31.43444824 9.5302124 C29.05379005 9.53157523 26.67312444 9.52787201 24.29248047 9.51953125 C20.63817734 9.50883336 16.98436587 9.51942351 13.33007812 9.53222656 C11.02148328 9.53090499 8.71288875 9.52834263 6.40429688 9.52441406 C4.75584778 9.53048676 4.75584778 9.53048676 3.07409668 9.53668213 C1.55241882 9.52722565 1.55241882 9.52722565 0 9.51757812 C-1.34330383 9.51519135 -1.34330383 9.51519135 -2.71374512 9.51275635 C-4.87695312 9.25878906 -4.87695312 9.25878906 -6.87695312 7.25878906 C-7.12695312 4.75878906 -7.12695312 4.75878906 -6.87695312 2.25878906 C-4.35080462 -0.26735944 -3.496197 0.00621204 0 0 Z " fill="#B3D0DF" transform="translate(229.876953125,107.7412109375)"/>
<path d="M0 0 C2.45823172 3.68734758 3.01242616 6.69699971 4 11 C4.33 11 4.66 11 5 11 C9.84164334 40.78578982 1.85953404 73.16083213 -15 98 C-16.58442346 99.88450367 -18.11913752 101.40411669 -20 103 C-18.2180842 98.08191239 -15.53287406 94.05806427 -12.65625 89.71875 C-11.11766548 87.19314899 -10.00510655 84.77409409 -9 82 C-10.98 82.495 -10.98 82.495 -13 83 C-12.06253633 79.46648309 -11.11900984 76.26600217 -9.62109375 72.91796875 C-1.75834692 54.75745138 -0.97082934 35.46933233 -1 16 C-0.67 16 -0.34 16 0 16 C0 10.72 0 5.44 0 0 Z " fill="#CDD8E0" transform="translate(332,115)"/>
<path d="M0 0 C2.2031658 -0.00216327 4.40581089 -0.02027626 6.60888672 -0.03930664 C15.33386296 -0.07284723 23.63612431 0.5350913 32.23779297 2.18530273 C32.73279297 3.67030273 32.73279297 3.67030273 33.23779297 5.18530273 C32.64998047 5.11311523 32.06216797 5.04092773 31.45654297 4.96655273 C23.90052003 4.18489519 16.39241591 4.07397402 8.80029297 4.06030273 C7.21861328 4.05353516 7.21861328 4.05353516 5.60498047 4.04663086 C4.09484375 4.04953125 4.09484375 4.04953125 2.55419922 4.05249023 C1.6512915 4.05361816 0.74838379 4.05474609 -0.18188477 4.0559082 C-2.79760143 4.18707765 -5.21124417 4.6066746 -7.76220703 5.18530273 C-7.76220703 5.51530273 -7.76220703 5.84530273 -7.76220703 6.18530273 C-8.33962646 6.30010986 -8.9170459 6.41491699 -9.51196289 6.53320312 C-30.58288601 10.78706919 -30.58288601 10.78706919 -49.76220703 20.18530273 C-51.08220703 20.18530273 -52.40220703 20.18530273 -53.76220703 20.18530273 C-54.09220703 18.53530273 -54.42220703 16.88530273 -54.76220703 15.18530273 C-36.73671053 6.10330175 -20.36556077 -0.00223258 0 0 Z " fill="#DBE6EA" transform="translate(199.76220703125,16.814697265625)"/>
<path d="M0 0 C7.3895515 0.869359 13.68019014 6.29713516 18.5234375 11.69921875 C22.05156072 16.19221544 22.05156072 16.19221544 21.8125 19.9375 C21.544375 20.618125 21.27625 21.29875 21 22 C18 22 18 22 16.31640625 20.35546875 C15.73761719 19.64003906 15.15882812 18.92460937 14.5625 18.1875 C12.2433239 15.33911593 10.01947904 13.103681 7 11 C7 11.66 7 12.32 7 13 C6.34 13 5.68 13 5 13 C4.67 13.66 4.34 14.32 4 15 C2.68 13.68 1.36 12.36 0 11 C-5.50719921 14.90510489 -10.35827355 19.09717644 -15 24 C-15.99 23.67 -16.98 23.34 -18 23 C-18.33 22.34 -18.66 21.68 -19 21 C-20.32 22.32 -21.64 23.64 -23 25 C-23.66 24.67 -24.32 24.34 -25 24 C-20.43697698 19.32775568 -15.78449183 14.85825331 -10.82421875 10.609375 C-9.17528084 9.15463749 -7.64510131 7.64946794 -6.125 6.0625 C-4 4 -4 4 -2 4 C-1.34 2.68 -0.68 1.36 0 0 Z " fill="#346A9D" transform="translate(74,256)"/>
<path d="M0 0 C1.69196704 1.64097626 3.36632709 3.30098017 5 5 C2.25629476 5.47716613 0.67950784 5.61385089 -2 5 C-4.0234375 3.5703125 -4.0234375 3.5703125 -6.25 1.625 C-24.9115487 -14.26559147 -46.42148343 -17.23277391 -70 -19 C-70 -19.33 -70 -19.66 -70 -20 C-74.62 -20 -79.24 -20 -84 -20 C-61.00043518 -35.33304322 -18.46929567 -14.84043112 0 0 Z " fill="#A7D1E5" transform="translate(265,68)"/>
<path d="M0 0 C0.66 0 1.32 0 2 0 C12.1439459 20.6645556 12.1439459 20.6645556 15 31 C15.22300781 31.77214844 15.44601562 32.54429688 15.67578125 33.33984375 C17.1969387 39.22786136 17.20368344 44.9460755 17 51 C16.67 51 16.34 51 16 51 C15.34 47.7 14.68 44.4 14 41 C14 52.22 14 63.44 14 75 C13.67 75 13.34 75 13 75 C12.98598145 74.16529175 12.98598145 74.16529175 12.97167969 73.3137207 C12.48394654 49.92882903 8.85455535 28.87414491 -2 8 C-2 7.34 -2 6.68 -2 6 C-1.34 6 -0.68 6 0 6 C0 4.02 0 2.04 0 0 Z " fill="#F1F4F6" transform="translate(319,78)"/>
<path d="M0 0 C0.66 0.33 1.32 0.66 2 1 C1.50628906 1.55429688 1.01257813 2.10859375 0.50390625 2.6796875 C-0.45708984 3.76636719 -0.45708984 3.76636719 -1.4375 4.875 C-2.07558594 5.59429687 -2.71367187 6.31359375 -3.37109375 7.0546875 C-5.86553937 10.03366572 -6.1289157 11.75904135 -6.15821838 15.56838989 C-6.17290161 17.01133423 -6.17290161 17.01133423 -6.18788147 18.48342896 C-6.19363693 19.5422226 -6.1993924 20.60101624 -6.20532227 21.69189453 C-6.22017166 23.36019318 -6.22017166 23.36019318 -6.23532104 25.06219482 C-6.26700455 28.75237878 -6.29172056 32.44257563 -6.31640625 36.1328125 C-6.33696986 38.6858657 -6.35796617 41.23891545 -6.37937927 43.79196167 C-6.42900543 49.83383707 -6.47425484 55.87573004 -6.51740164 61.91765392 C-6.56676067 68.79547277 -6.62168374 75.67324364 -6.67708123 82.55101609 C-6.79092526 96.70063262 -6.89775902 110.85029522 -7 125 C-8.13145644 124.0462604 -9.26066661 123.08985551 -10.38891602 122.13232422 C-11.33251732 121.33385574 -11.33251732 121.33385574 -12.29518127 120.51925659 C-15.11736221 118.00425782 -16.92762055 115.13996887 -19 112 C-18.505 111.01 -18.505 111.01 -18 110 C-15.36 113.3 -12.72 116.6 -10 120 C-9.99857498 118.66473267 -9.99714996 117.32946533 -9.99568176 115.95373535 C-9.9789993 103.3590401 -9.93618694 90.76466744 -9.86790943 78.17014313 C-9.83364518 71.69541304 -9.80853023 65.22091879 -9.80444336 58.74609375 C-9.80015937 52.49538807 -9.77168685 46.24521433 -9.72656822 39.99467468 C-9.71359669 37.61214803 -9.70928428 35.22955772 -9.71384621 32.84700012 C-9.71875428 29.50484045 -9.69264755 26.16423417 -9.65942383 22.82226562 C-9.66804947 21.84114807 -9.67667511 20.86003052 -9.68556213 19.84918213 C-9.55403628 11.93631629 -6.99768689 7.24074258 -1.6875 1.5 C-1.130625 1.005 -0.57375 0.51 0 0 Z " fill="#C4DBE6" transform="translate(142,86)"/>
<path d="M0 0 C1.6250647 -0.00065712 1.6250647 -0.00065712 3.28295898 -0.00132751 C6.85964045 0.00076051 10.43585171 0.02409299 14.01245117 0.04760742 C16.49394983 0.05320331 18.9754518 0.05747344 21.45695496 0.06047058 C27.98527186 0.07191986 34.51338825 0.10138809 41.04162598 0.13458252 C47.70438862 0.16690363 54.3672096 0.17897556 61.0300293 0.1940918 C74.10107834 0.22625742 87.17198846 0.27687763 100.24291992 0.34057617 C100.24291992 1.00057617 100.24291992 1.66057617 100.24291992 2.34057617 C99.66846728 2.34480811 99.09401464 2.34904005 98.50215435 2.35340023 C84.53118859 2.45665796 70.56027425 2.56535049 56.58939648 2.67991543 C49.83321549 2.73521807 43.07702922 2.78869521 36.32080078 2.83789062 C29.8044736 2.88534431 23.28819881 2.93786431 16.77193642 2.99351692 C14.28198893 3.01394609 11.79202676 3.03265823 9.30205345 3.04965019 C5.82289684 3.07368164 2.3438418 3.10373812 -1.13525391 3.13525391 C-2.68999924 3.1438871 -2.68999924 3.1438871 -4.27615356 3.1526947 C-5.22266281 3.16248352 -6.16917206 3.17227234 -7.1443634 3.18235779 C-7.96752454 3.18881034 -8.79068567 3.19526289 -9.63879108 3.20191097 C-11.947353 3.26312085 -11.947353 3.26312085 -14.75708008 4.34057617 C-15.49031804 6.35565975 -15.49031804 6.35565975 -15.75708008 8.34057617 C-16.41708008 8.01057617 -17.07708008 7.68057617 -17.75708008 7.34057617 C-16.81354171 4.85306593 -15.88959937 3.45267465 -13.84736633 1.72514343 C-9.25713418 -0.33145736 -4.97449513 -0.0526043 0 0 Z " fill="#010D30" transform="translate(170.757080078125,74.659423828125)"/>
<path d="M0 0 C10.23 0 20.46 0 31 0 C31 0.33 31 0.66 31 1 C30.28972656 1.06058594 29.57945312 1.12117188 28.84765625 1.18359375 C27.92855469 1.26738281 27.00945312 1.35117187 26.0625 1.4375 C25.14597656 1.51871094 24.22945312 1.59992187 23.28515625 1.68359375 C21.03840268 1.76044976 21.03840268 1.76044976 20 3 C22.97 3.495 22.97 3.495 26 4 C26 4.33 26 4.66 26 5 C24.55367187 5.19916016 24.55367187 5.19916016 23.078125 5.40234375 C21.81484375 5.57894531 20.5515625 5.75554688 19.25 5.9375 C17.37054688 6.19853516 17.37054688 6.19853516 15.453125 6.46484375 C12.18678698 6.90418702 12.18678698 6.90418702 9.8046875 7.6015625 C7.64137414 8.07917714 6.04637264 7.82966806 3.875 7.4375 C2.59625 7.293125 1.3175 7.14875 0 7 C-0.66 7.66 -1.32 8.32 -2 9 C-3.98821313 9.39764263 -5.98944339 9.73775349 -8 10 C-9.0625 8.125 -9.0625 8.125 -10 6 C-9 4 -9 4 -6.93359375 3.1484375 C-5.69802734 2.76558594 -5.69802734 2.76558594 -4.4375 2.375 C-3.61121094 2.11460938 -2.78492188 1.85421875 -1.93359375 1.5859375 C-1.29550781 1.39257812 -0.65742188 1.19921875 0 1 C0 0.67 0 0.34 0 0 Z " fill="#0A3159" transform="translate(187,32)"/>
<path d="M0 0 C0.33 0.99 0.66 1.98 1 3 C-0.9375 6.1875 -0.9375 6.1875 -3 9 C-2.34 9.66 -1.68 10.32 -1 11 C-1.55429688 12.09699219 -2.10859375 13.19398437 -2.6796875 14.32421875 C-3.41156558 15.77859187 -4.14333045 17.23302196 -4.875 18.6875 C-5.23980469 19.40873047 -5.60460937 20.12996094 -5.98046875 20.87304688 C-7.49127434 23.88092346 -8.92311661 26.78758859 -10.0703125 29.95703125 C-10.37710938 30.63121094 -10.68390625 31.30539063 -11 32 C-12.485 32.495 -12.485 32.495 -14 33 C-14 31.68 -14 30.36 -14 29 C-15.65 34.61 -17.3 40.22 -19 46 C-19.33 46 -19.66 46 -20 46 C-19.93150742 31.75354396 -12.50401561 18.31529583 -6 6 C-5.34 6 -4.68 6 -4 6 C-2.61061923 4.03852126 -1.2739589 2.03833424 0 0 Z " fill="#B7CCD9" transform="translate(105,71)"/>
<path d="M0 0 C4.5851353 2.05470743 7.84127764 5.1264089 11 9 C11.9375 11.9375 11.9375 11.9375 12 14 C10.35 15.32 8.7 16.64 7 18 C3.86340338 16.57298983 1.37619467 14.85240215 -1.25 12.625 C-1.95640625 12.03976562 -2.6628125 11.45453125 -3.390625 10.8515625 C-5 9 -5 9 -5 5 C-2.5 2.25 -2.5 2.25 0 0 Z " fill="#C1D5E1" transform="translate(91,249)"/>
<path d="M0 0 C3.3326532 1.42095543 5.23606522 3.1165874 7.5625 5.875 C8.14128906 6.55304688 8.72007813 7.23109375 9.31640625 7.9296875 C10.93211201 9.91651825 12.4799399 11.93937141 14 14 C12.68 15.65 11.36 17.3 10 19 C5.32197941 18.72482232 3.25361247 16.66806114 0.13671875 13.47265625 C-1 12 -1 12 -1 10 C-1.66 10 -2.32 10 -3 10 C-5 7 -5 7 -4.875 5 C-3.76097537 2.45365799 -2.30449377 1.48677017 0 0 Z " fill="#A8C5D9" transform="translate(102,231)"/>
<path d="M0 0 C0.33 0 0.66 0 1 0 C1.41237803 16.03119592 -6.22914766 33.56800139 -16.546875 45.83984375 C-17.9375 47.25 -17.9375 47.25 -20 49 C-18.2180842 44.08191239 -15.53287406 40.05806427 -12.65625 35.71875 C-11.11766548 33.19314899 -10.00510655 30.77409409 -9 28 C-10.32 28.33 -11.64 28.66 -13 29 C-12.03059732 25.34609757 -11.0157766 22.03615471 -9.5 18.5625 C-7.87842784 14.71126611 -6.92743502 11.06644586 -6 7 C-4.35 6.67 -2.7 6.34 -1 6 C-0.67 4.02 -0.34 2.04 0 0 Z " fill="#B4CBD8" transform="translate(332,169)"/>
<path d="M0 0 C0.61875 0.8353125 0.61875 0.8353125 1.25 1.6875 C1.8275 2.450625 2.405 3.21375 3 4 C3.66 4.886875 4.32 5.77375 5 6.6875 C6.86135195 9.2374996 6.86135195 9.2374996 10 10 C10 10.66 10 11.32 10 12 C9.071875 12.4125 8.14375 12.825 7.1875 13.25 C4.05706132 14.96867222 2.84810113 16.0430382 1 19 C0.34 19.99 -0.32 20.98 -1 22 C-1.38671875 21.45730469 -1.7734375 20.91460937 -2.171875 20.35546875 C-2.69265625 19.64003906 -3.2134375 18.92460937 -3.75 18.1875 C-4.26046875 17.47980469 -4.7709375 16.77210938 -5.296875 16.04296875 C-7.02482358 13.97022309 -8.78526476 12.52624146 -11 11 C-10.113125 10.484375 -9.22625 9.96875 -8.3125 9.4375 C-4.51587629 6.93948392 -2.46826698 3.77499656 0 0 Z " fill="#F4C633" transform="translate(378,133)"/>
<path d="M0 0 C7.23562885 0.40197938 13.88776027 6.52865568 18.5234375 11.69921875 C22.05156072 16.19221544 22.05156072 16.19221544 21.8125 19.9375 C21.544375 20.618125 21.27625 21.29875 21 22 C18 22 18 22 16.4921875 20.53125 C15.95851563 19.8609375 15.42484375 19.190625 14.875 18.5 C11.57962303 14.5539435 8.00740129 11.20707322 4.11328125 7.859375 C1.98414693 5.98605164 -0.01544483 4.02487345 -2 2 C-1.34 1.34 -0.68 0.68 0 0 Z " fill="#DBE9F3" transform="translate(74,256)"/>
<path d="M0 0 C0.33 0 0.66 0 1 0 C1 7.26 1 14.52 1 22 C1.99 22 2.98 22 4 22 C5.60007498 32.31352677 4.13713723 40.2654497 1 50 C0 47 0 47 0 44 C-1.32 44.99 -2.64 45.98 -4 47 C-3.22638359 38.87702767 -3.22638359 38.87702767 -2.53662109 36.20483398 C-0.63714872 28.84286621 -0.55410479 21.50840886 -0.375 13.9375 C-0.33673029 12.5813576 -0.29767367 11.22523718 -0.2578125 9.86914062 C-0.16415893 6.57955896 -0.0784314 3.28997388 0 0 Z " fill="#C6D7DF" transform="translate(331,131)"/>
<path d="M0 0 C1.859375 0.53515625 1.859375 0.53515625 4 2 C4.97383384 4.54579401 5.66141761 6.802778 6.25 9.4375 C6.41983398 10.15164062 6.58966797 10.86578125 6.76464844 11.6015625 C8.06538013 17.43260918 8.45531653 23.03029437 8 29 C7.67 29 7.34 29 7 29 C6.34 25.7 5.68 22.4 5 19 C5 30.22 5 41.44 5 53 C4.67 53 4.34 53 4 53 C3.97494385 52.38068604 3.9498877 51.76137207 3.92407227 51.12329102 C3.80677342 48.26955112 3.68466414 45.41603559 3.5625 42.5625 C3.52318359 41.58861328 3.48386719 40.61472656 3.44335938 39.61132812 C3.21414557 34.33941052 2.86229792 29.13254654 2.18676758 23.89794922 C2 22 2 22 2.125 18.5625 C1.98168989 14.47816191 0.93275283 11.25290342 -0.44140625 7.4296875 C-1.08647791 4.62385132 -0.74046655 2.75590861 0 0 Z " fill="#E3EAED" transform="translate(328,100)"/>
<path d="M0 0 C0.66 0 1.32 0 2 0 C15.79376188 17.28374982 17.08956611 40.89950915 16 62 C15.71628819 64.00764009 15.40767258 66.0138192 15 68 C14.67 68 14.34 68 14 68 C14.01571045 67.44352783 14.0314209 66.88705566 14.04760742 66.3137207 C14.54899257 45.62153428 13.40144686 25.80289371 4 7 C2.96840374 10.09478879 3.02517138 11.52631393 3.4375 14.6875 C3.53933594 15.49574219 3.64117187 16.30398437 3.74609375 17.13671875 C3.82988281 17.75160156 3.91367187 18.36648437 4 19 C0.53226679 15.53226679 0.12727626 10.41427164 -0.125 5.62890625 C-0.125 3.75214158 -0.06820091 1.87552506 0 0 Z " fill="#9CCBE2" transform="translate(287,93)"/>
<path d="M0 0 C0.66 0 1.32 0 2 0 C2.77385297 5.57394456 3.19046075 11.03313814 3.31640625 16.65625 C3.33718735 17.44398804 3.35796844 18.23172607 3.37937927 19.04333496 C3.44410974 21.52881206 3.50339906 24.01438333 3.5625 26.5 C3.60575823 28.19792592 3.64937468 29.89584275 3.69335938 31.59375 C3.79971113 35.72907325 3.90118749 39.86449001 4 44 C3.01 43.67 2.02 43.34 1 43 C0.09791877 40.2937563 -0.12227599 38.76149014 -0.11352539 35.98754883 C-0.11344986 35.18694534 -0.11337433 34.38634186 -0.11329651 33.56147766 C-0.10813522 32.70201035 -0.10297394 31.84254303 -0.09765625 30.95703125 C-0.0962413 30.0734343 -0.09482635 29.18983734 -0.09336853 28.27946472 C-0.08777069 25.45710872 -0.07521861 22.63483203 -0.0625 19.8125 C-0.05748472 17.89908969 -0.05292186 15.98567813 -0.04882812 14.07226562 C-0.03780197 9.38147986 -0.02053883 4.69075337 0 0 Z " fill="#D8E8EE" transform="translate(145,153)"/>
<path d="M0 0 C4.67105792 1.55701931 8.08705685 4.08447373 12 7 C11.01 7.99 10.02 8.98 9 10 C10.11375 10.433125 10.11375 10.433125 11.25 10.875 C14 12 14 12 15.75 13.0625 C18.8245083 14.34354513 21.43437451 14.19131251 24.75 14.125 C25.92046875 14.10695312 27.0909375 14.08890625 28.296875 14.0703125 C29.18890625 14.04710937 30.0809375 14.02390625 31 14 C31 14.99 31 15.98 31 17 C22.9460002 18.7258571 17.86086012 16.73497326 11 12.75 C10.31421875 12.36714844 9.6284375 11.98429688 8.921875 11.58984375 C4.54756359 9.09381491 0.77836649 6.32968547 -3 3 C-2.34 2.67 -1.68 2.34 -1 2 C-0.34 2.33 0.32 2.66 1 3 C0.67 2.01 0.34 1.02 0 0 Z " fill="#AAC1D1" transform="translate(137,230)"/>
<path d="M0 0 C0.99 0.33 1.98 0.66 3 1 C-7.38645473 6.70015845 -17.18556371 9.33729468 -29 10 C-29 9.34 -29 8.68 -29 8 C-31.31 7.67 -33.62 7.34 -36 7 C-36 6.67 -36 6.34 -36 6 C-34.329375 5.83564453 -34.329375 5.83564453 -32.625 5.66796875 C-24.6963048 4.85604659 -16.83529626 3.91477982 -9 2.4375 C-8.32453125 2.31076904 -7.6490625 2.18403809 -6.953125 2.0534668 C-4.4778636 1.56921822 -2.26692984 1.13346492 0 0 Z " fill="#DFEBEF" transform="translate(250,214)"/>
<path d="M0 0 C3.35915158 1.43963639 5.71624938 3.12416589 8 6 C7.89464263 9.37143569 6.08938984 11.45639498 4 14 C0.82461668 13.65978036 -0.02276865 12.97533396 -2.25 10.5625 C-4 8 -4 8 -4 6 C-4.66 5.67 -5.32 5.34 -6 5 C-5.01 5 -4.02 5 -3 5 C-2.5359375 4.0409375 -2.5359375 4.0409375 -2.0625 3.0625 C-1 1 -1 1 0 0 Z " fill="#4D78A0" transform="translate(115,245)"/>
<path d="M0 0 C0.33 0 0.66 0 1 0 C1 16.17 1 32.34 1 49 C-4.17860607 43.82139393 -2.18384272 30.95648042 -2.1875 24.0625 C-2.19974609 22.85142578 -2.21199219 21.64035156 -2.22460938 20.39257812 C-2.23605478 13.34602328 -1.74035392 6.83816115 0 0 Z " fill="#B0CBD9" transform="translate(84,118)"/>
<path d="M0 0 C1.9375 0.8125 1.9375 0.8125 4 2 C4.495 3.485 4.495 3.485 5 5 C-18.43 4.67 -41.86 4.34 -66 4 C-66 3.67 -66 3.34 -66 3 C-43.89 2.67 -21.78 2.34 1 2 C0.505 1.01 0.505 1.01 0 0 Z " fill="#000624" transform="translate(275,79)"/>
<path d="M0 0 C5.33136697 1.91887722 10.05806216 4.80538006 14.94140625 7.63476562 C19.20182963 10.07335082 23.4503394 12.15281404 28 14 C23.00853167 15.66382278 18.31792236 15.99988808 13.41015625 13.8828125 C11.21872431 12.65727236 9.09332728 11.38565399 7 10 C7.33 9.01 7.66 8.02 8 7 C7.13375 6.36771484 7.13375 6.36771484 6.25 5.72265625 C5.5075 5.17480469 4.765 4.62695312 4 4.0625 C3.2575 3.51722656 2.515 2.97195312 1.75 2.41015625 C1.1725 1.94480469 0.595 1.47945312 0 1 C0 0.67 0 0.34 0 0 Z " fill="#B4CDDA" transform="translate(139,230)"/>
<path d="M0 0 C0.33 0 0.66 0 1 0 C1.78577266 3.47199152 2.12828637 6.68106299 2.1328125 10.23828125 C2.13410156 11.22376953 2.13539062 12.20925781 2.13671875 13.22460938 C2.13285156 14.24361328 2.12898438 15.26261719 2.125 16.3125 C2.12886719 17.31990234 2.13273437 18.32730469 2.13671875 19.36523438 C2.1293704 25.0050934 1.83967361 30.42216818 1 36 C0.67 36 0.34 36 0 36 C-1.29012288 29.08862745 -1.1472226 22.19873156 -1.125 15.1875 C-1.12886719 13.94806641 -1.13273437 12.70863281 -1.13671875 11.43164062 C-1.13542969 10.25150391 -1.13414063 9.07136719 -1.1328125 7.85546875 C-1.13168457 6.77934326 -1.13055664 5.70321777 -1.12939453 4.59448242 C-1 2 -1 2 0 0 Z " fill="#35465F" transform="translate(71,129)"/>
<path d="M0 0 C-0.99 0.495 -0.99 0.495 -2 1 C-2 1.66 -2 2.32 -2 3 C0.64 3 3.28 3 6 3 C2.66299043 5.22467305 0.07843134 5.82106561 -3.8125 6.75 C-10.67613726 8.4509554 -16.87009788 10.93937901 -23.26953125 13.92578125 C-24.62111328 14.45751953 -24.62111328 14.45751953 -26 15 C-26.66 14.67 -27.32 14.34 -28 14 C-26.12762629 13.03654556 -24.2519701 12.07946898 -22.375 11.125 C-20.80878906 10.32449219 -20.80878906 10.32449219 -19.2109375 9.5078125 C-16.18198375 8.08545709 -13.19356666 6.9877999 -10 6 C-10 5.01 -10 4.02 -10 3 C-9 1 -9 1 -7.25 0.375 C-4.79549443 -0.03408426 -2.4840589 -0.06900164 0 0 Z " fill="#E2EBEF" transform="translate(179,20)"/>
<path d="M0 0 C0.66 0.99 1.32 1.98 2 3 C0.083412 3.02712153 -1.8332873 3.04645097 -3.75 3.0625 C-5.35101563 3.07990234 -5.35101563 3.07990234 -6.984375 3.09765625 C-9.53368501 3.01510087 -11.57933591 2.74617558 -14 2 C-14 2.66 -14 3.32 -14 4 C-17.3 4 -20.6 4 -24 4 C-23.67 2.68 -23.34 1.36 -23 0 C-16.17322993 -1.96835933 -6.85342822 -1.93491185 0 0 Z " fill="#A8C1D1" transform="translate(201,251)"/>
<path d="M0 0 C2.31 1.98 4.62 3.96 7 6 C6 8 6 8 4.29296875 8.7734375 C2.14855742 9.38612645 0.23019433 9.87874672 -2 10 C-4.5 8.125 -4.5 8.125 -6 6 C-4.48601545 2.21503862 -3.9855604 1.9927802 0 0 Z " fill="#DFECF3" transform="translate(91,251)"/>
<path d="M0 0 C0.33 0 0.66 0 1 0 C1 7.26 1 14.52 1 22 C1.99 22 2.98 22 4 22 C4.33 26.29 4.66 30.58 5 35 C4.01 35.66 3.02 36.32 2 37 C0.40358351 32.07541417 -0.24020659 27.98406799 -0.1953125 22.75390625 C-0.1924826 22.09792953 -0.18965271 21.44195282 -0.18673706 20.76609802 C-0.17565984 18.69803591 -0.15058063 16.63042827 -0.125 14.5625 C-0.11495402 13.14909485 -0.10583102 11.73568283 -0.09765625 10.32226562 C-0.07576184 6.88136606 -0.04132051 3.44072748 0 0 Z " fill="#BBCCD8" transform="translate(331,131)"/>
<path d="M0 0 C7.7307513 -0.48401226 14.66642226 0.07791487 22.1875 1.8125 C23.30112915 2.0604834 23.30112915 2.0604834 24.43725586 2.31347656 C29.74744568 3.62116853 29.74744568 3.62116853 32 7 C30.02 7 28.04 7 26 7 C26 6.34 26 5.68 26 5 C25.46375 4.96261719 24.9275 4.92523438 24.375 4.88671875 C16.135496 4.19557614 8.10118552 2.59812469 0 1 C0 0.67 0 0.34 0 0 Z " fill="#CFDBE2" transform="translate(84,328)"/>
<path d="M0 0 C0.33 0 0.66 0 1 0 C1.41277905 30.5392995 1.41277905 30.5392995 -1 42 C-1.33 42 -1.66 42 -2 42 C-2.33 39.03 -2.66 36.06 -3 33 C-2.67 33 -2.34 33 -2 33 C-2.33 27.06 -2.66 21.12 -3 15 C-2.34 14.67 -1.68 14.34 -1 14 C-0.52998967 10.72444392 -0.52998967 10.72444392 -0.375 6.9375 C-0.30023438 5.64714844 -0.22546875 4.35679687 -0.1484375 3.02734375 C-0.09945313 2.02832031 -0.05046875 1.02929688 0 0 Z " fill="#5F6F7A" transform="translate(348,130)"/>
<path d="M0 0 C1.76351631 2.64527446 2.38520935 3.97221911 3.0625 6.9375 C3.29646484 7.94103516 3.29646484 7.94103516 3.53515625 8.96484375 C3.68855469 9.63644531 3.84195312 10.30804688 4 11 C4.20367187 11.58394531 4.40734375 12.16789062 4.6171875 12.76953125 C5.19893193 16.15908296 4.57443449 19.38585905 4.0625 22.75 C3.96259766 23.44738281 3.86269531 24.14476562 3.75976562 24.86328125 C3.51334127 26.57651726 3.25759045 28.28840725 3 30 C2.34 30 1.68 30 1 30 C0.67 20.1 0.34 10.2 0 0 Z " fill="#D5DFE5" transform="translate(332,115)"/>
<path d="M0 0 C2.64752004 2.57784846 4.94432065 4.91648098 7 8 C6.625 10.6875 6.625 10.6875 6 13 C5.01 13 4.02 13 3 13 C2.566875 12.0925 2.13375 11.185 1.6875 10.25 C0.29482729 7.56781551 -1.11112757 5.33860395 -3 3 C-2.01 2.01 -1.02 1.02 0 0 Z " fill="#BDD2E1" transform="translate(89,265)"/>
<path d="M0 0 C0 0.99 0 1.98 0 3 C-0.64324219 3.13535156 -1.28648437 3.27070312 -1.94921875 3.41015625 C-10.06917487 5.34458232 -16.79301318 8.86049358 -24 13 C-24.99 13.495 -24.99 13.495 -26 14 C-24.64878303 9.94634908 -22.05966734 9.00468025 -18.5 7.0625 C-17.86868164 6.71131104 -17.23736328 6.36012207 -16.58691406 5.99829102 C-2.97374203 -1.48687102 -2.97374203 -1.48687102 0 0 Z " fill="#EDF5F9" transform="translate(175,46)"/>
<path d="M0 0 C0.66 0.99 1.32 1.98 2 3 C1.69320312 3.56203125 1.38640625 4.1240625 1.0703125 4.703125 C-0.02957585 7.06346934 -0.60095851 9.20465562 -1.125 11.75 C-1.37636719 12.94882813 -1.37636719 12.94882813 -1.6328125 14.171875 C-1.75398438 14.77515625 -1.87515625 15.3784375 -2 16 C-2.66 16 -3.32 16 -4 16 C-4 16.99 -4 17.98 -4 19 C-4.99 19.33 -5.98 19.66 -7 20 C-5.69039355 12.73763698 -3.24043814 6.6169252 0 0 Z " fill="#32425C" transform="translate(83,84)"/>
<path d="M0 0 C1.9609375 0.828125 1.9609375 0.828125 4 2 C4.625 4.75 4.625 4.75 5 8 C5.63305821 10.01089078 6.29094062 12.01463373 7 14 C6.34 14.66 5.68 15.32 5 16 C2.71195063 14.34116421 1.43536563 13.37716693 0 11 C-0.44207004 7.29701335 -0.29251428 3.71168123 0 0 Z " fill="#98B3C6" transform="translate(100,180)"/>
<path d="M0 0 C0.33 0 0.66 0 1 0 C3.57996518 5.87094438 3.22552426 11.59609985 3.125 17.875 C3.11597656 18.94492188 3.10695313 20.01484375 3.09765625 21.1171875 C3.07419342 23.74502439 3.04136459 26.37239406 3 29 C0.00946295 25.70247588 -0.36034353 23.54244413 -0.29296875 19.140625 C-0.28330078 18.02558594 -0.27363281 16.91054687 -0.26367188 15.76171875 C-0.23853516 14.60285156 -0.21339844 13.44398438 -0.1875 12.25 C-0.17396484 11.07566406 -0.16042969 9.90132812 -0.14648438 8.69140625 C-0.1111478 5.79380702 -0.06180979 2.89713573 0 0 Z " fill="#92ACBE" transform="translate(322,125)"/>
<path d="M0 0 C-3.89095157 3.40458262 -8.11365765 6.24177968 -13 8 C-13.66 7.67 -14.32 7.34 -15 7 C-15 6.01 -15 5.02 -15 4 C-13.4470724 3.12855131 -11.88214564 2.27846343 -10.3125 1.4375 C-9.44238281 0.96183594 -8.57226562 0.48617188 -7.67578125 -0.00390625 C-4.61671247 -1.14268368 -3.08136961 -0.92718689 0 0 Z " fill="#243855" transform="translate(286,259)"/>
<path d="M0 0 C5.4389165 -0.21755666 9.87080814 -0.10428384 15 2 C15 2.99 15 3.98 15 5 C10.84773144 6.18956883 8.61274007 5.78960563 4.6875 4.0625 C3.80449219 3.68222656 2.92148438 3.30195313 2.01171875 2.91015625 C1.34785156 2.60980469 0.68398437 2.30945313 0 2 C0 1.34 0 0.68 0 0 Z " fill="#E7EEF1" transform="translate(242,22)"/>
<path d="M0 0 C0 0.66 0 1.32 0 2 C-8.08808989 3.60614551 -15.7574683 4.26305952 -24 4 C-17.11839871 0.0150338 -7.82176167 -0.36380287 0 0 Z " fill="#CBD6DE" transform="translate(96,343)"/>
<path d="M0 0 C-0.99 0.495 -0.99 0.495 -2 1 C-2.33 1.99 -2.66 2.98 -3 4 C-5.43359375 5.203125 -5.43359375 5.203125 -8.4375 6.25 C-9.92056641 6.78367187 -9.92056641 6.78367187 -11.43359375 7.328125 C-14 8 -14 8 -16 7 C-13.64722731 4.27573689 -11.37503669 3.1858237 -8 2 C-8 1.34 -8 0.68 -8 0 C-4.71023192 -1.09658936 -3.28696233 -0.79953138 0 0 Z " fill="#D3DFE5" transform="translate(172,23)"/>
<path d="M0 0 C1.875 0.6875 1.875 0.6875 4 2 C5.0625 4.375 5.0625 4.375 6 7 C6.95824253 8.36365283 7.94721175 9.70794169 9 11 C6.97954558 10.39816251 4.97888961 9.72693904 3 9 C2.67 8.34 2.34 7.68 2 7 C0.68 7.33 -0.64 7.66 -2 8 C-1.125 1.125 -1.125 1.125 0 0 Z " fill="#99B6CC" transform="translate(102,231)"/>
<path d="M0 0 C1.32 0.33 2.64 0.66 4 1 C1.14469286 4.88185804 -1.8132134 7.54737608 -5.75 10.3125 C-6.73484375 11.00988281 -7.7196875 11.70726562 -8.734375 12.42578125 C-9.48203125 12.94527344 -10.2296875 13.46476563 -11 14 C-11.66 13.67 -12.32 13.34 -13 13 C-8.25 9 -8.25 9 -6 9 C-5.7525 8.443125 -5.505 7.88625 -5.25 7.3125 C-3.78393985 4.60028873 -1.97010529 2.36412635 0 0 Z " fill="#E7F2F6" transform="translate(281,209)"/>
<path d="M0 0 C0.66 0.33 1.32 0.66 2 1 C1.88011719 2.08861328 1.88011719 2.08861328 1.7578125 3.19921875 C2.07526374 6.87038873 3.38851726 8.14461905 5.875 10.8125 C6.59429687 11.60269531 7.31359375 12.39289063 8.0546875 13.20703125 C9.80417789 15.22590933 9.80417789 15.22590933 12 15 C12 15.66 12 16.32 12 17 C8.71245489 16.42110619 7.06327505 15.45171589 4.75 13.0625 C4.22921875 12.53785156 3.7084375 12.01320312 3.171875 11.47265625 C2 10 2 10 2 8 C1.34 8 0.68 8 0 8 C-2 5 -2 5 -1.6875 2.875 C-1 1 -1 1 0 0 Z " fill="#CAE2ED" transform="translate(99,233)"/>
<path d="M0 0 C4.67105792 1.55701931 8.08705685 4.08447373 12 7 C11.01 7.66 10.02 8.32 9 9 C5.02975564 7.98198863 2.58136902 6.15500658 0 3 C0 2.01 0 1.02 0 0 Z " fill="#9BB5C7" transform="translate(137,230)"/>
<path d="M0 0 C4.56395988 1.27366322 7.36559917 3.01792753 11 6 C12.66140763 6.67966676 14.32700041 7.34938905 16 8 C16.33 8.66 16.66 9.32 17 10 C16.34 10.66 15.68 11.32 15 12 C14.38511719 11.51789063 13.77023438 11.03578125 13.13671875 10.5390625 C12.32847656 9.90742188 11.52023438 9.27578125 10.6875 8.625 C9.88699219 7.99851562 9.08648437 7.37203125 8.26171875 6.7265625 C4.7868818 4.07392358 2.30138557 2.69752199 -2 2 C-1.34 1.34 -0.68 0.68 0 0 Z " fill="#0B183A" transform="translate(75,254)"/>
<path d="M0 0 C1.98608946 2.97913419 3.06830564 5.57133543 4.25 8.9375 C4.62640625 9.97777344 5.0028125 11.01804688 5.390625 12.08984375 C6 15 6 15 5.109375 17.37890625 C4.56023437 18.18134766 4.56023437 18.18134766 4 19 C4 18.34 4 17.68 4 17 C3.34 16.67 2.68 16.34 2 16 C0.25548659 10.47570753 -0.20612487 5.77149626 0 0 Z " fill="#364056" transform="translate(75,176)"/>
<path d="M0 0 C0.66 0.33 1.32 0.66 2 1 C-0.29223175 5.1018884 -2.80695016 8.56747142 -6 12 C-6.99 12 -7.98 12 -9 12 C-9 9 -9 9 -7.03125 6.73828125 C-5.77828125 5.53751953 -5.77828125 5.53751953 -4.5 4.3125 C-3.6646875 3.50425781 -2.829375 2.69601563 -1.96875 1.86328125 C-1.3190625 1.24839844 -0.669375 0.63351563 0 0 Z " fill="#364D67" transform="translate(113,43)"/>
<path d="M0 0 C0.66 0.33 1.32 0.66 2 1 C1 3 1 3 -1.75 4.3125 C-5.22547012 6.11707102 -7.28563281 8.2142021 -10 11 C-12.1875 12.375 -12.1875 12.375 -14 13 C-14.66 12.67 -15.32 12.34 -16 12 C-5.85799286 2.64022213 -5.85799286 2.64022213 0 0 Z " fill="#E1ECF0" transform="translate(142,34)"/>
<path d="M0 0 C1.32 0.66 2.64 1.32 4 2 C3.67 2.66 3.34 3.32 3 4 C3.66 4.33 4.32 4.66 5 5 C1.04 7.64 -2.92 10.28 -7 13 C-7.66 12.67 -8.32 12.34 -9 12 C-8 10 -8 10 -4.5 8.25 C-2.58318438 7.28024974 -2.58318438 7.28024974 -1 6 C0.05175552 2.87311572 0.05175552 2.87311572 0 0 Z " fill="#CDDBE2" transform="translate(143,33)"/>
<path d="M0 0 C1 3 1 3 -0.0625 6.5625 C-2 10 -2 10 -5.1875 11.4375 C-6.115625 11.623125 -7.04375 11.80875 -8 12 C-7.34 9.69 -6.68 7.38 -6 5 C-5.34 5 -4.68 5 -4 5 C-2.61767557 3.37373596 -1.28062485 1.7074998 0 0 Z " fill="#A2B8C8" transform="translate(327,186)"/>
<path d="M0 0 C1.27609323 0.90933009 2.54565553 1.82782853 3.8125 2.75 C4.87404297 3.51570313 4.87404297 3.51570313 5.95703125 4.296875 C8.02977691 6.02482358 9.47375854 7.78526476 11 10 C9.68 10.33 8.36 10.66 7 11 C5.82439821 9.73742767 4.65977135 8.46462916 3.5 7.1875 C2.8503125 6.47980469 2.200625 5.77210937 1.53125 5.04296875 C0 3 0 3 0 0 Z " fill="#2E425D" transform="translate(296,36)"/>
<path d="M0 0 C2.3129482 2.3129482 2.49580975 3.47904875 3.125 6.625 C3.29257813 7.44226563 3.46015625 8.25953125 3.6328125 9.1015625 C3.81457031 10.04128906 3.81457031 10.04128906 4 11 C3.34 10.34 2.68 9.68 2 9 C2 11.64 2 14.28 2 17 C-1 15 -1 15 -1.6875 12.375 C-1.790625 11.59125 -1.89375 10.8075 -2 10 C-1.34 10 -0.68 10 0 10 C0 6.7 0 3.4 0 0 Z " fill="#AFCAD8" transform="translate(99,172)"/>
<path d="M0 0 C0.66 0.33 1.32 0.66 2 1 C1.52575143 5.26823714 -0.95761403 7.17492731 -4 10 C-4.598125 10.598125 -5.19625 11.19625 -5.8125 11.8125 C-6.204375 12.204375 -6.59625 12.59625 -7 13 C-7.66 12.67 -8.32 12.34 -9 12 C-6 8 -3 4 0 0 Z " fill="#B4C5D0" transform="translate(72,321)"/>
<path d="M0 0 C2.375 0.3125 2.375 0.3125 5 1 C5.66 1.99 6.32 2.98 7 4 C7.99 4.33 8.98 4.66 10 5 C9.34 6.32 8.68 7.64 8 9 C6.84775972 8.07038578 5.70340824 7.1309875 4.5625 6.1875 C3.60537109 5.40439453 3.60537109 5.40439453 2.62890625 4.60546875 C1 3 1 3 0 0 Z " fill="#B5CEDE" transform="translate(103,241)"/>
<path d="M0 0 C0.33 0 0.66 0 1 0 C0.58846263 4.97093824 0.20399168 9.44508386 -2 14 C-2.66 13.34 -3.32 12.68 -4 12 C-3.625 8.375 -3.625 8.375 -3 5 C-2.34 5 -1.68 5 -1 5 C-0.67 3.35 -0.34 1.7 0 0 Z " fill="#22344F" transform="translate(341,184)"/>
<path d="M0 0 C3.96 0 7.92 0 12 0 C12 0.66 12 1.32 12 2 C12.99 2.33 13.98 2.66 15 3 C15 3.66 15 4.32 15 5 C7.57142857 4 7.57142857 4 4 3 C4 2.34 4 1.68 4 1 C2.68 0.67 1.36 0.34 0 0 Z " fill="#455169" transform="translate(235,9)"/>
<path d="M0 0 C3.3 0 6.6 0 10 0 C10 0.99 10 1.98 10 3 C6.33694766 3.74926071 3.57644848 4.2380014 0 3 C0 2.01 0 1.02 0 0 Z " fill="#A0B9CB" transform="translate(158,244)"/>
<path d="M0 0 C0.66 0 1.32 0 2 0 C1.50769231 7.38461538 1.50769231 7.38461538 -1.0625 10.5 C-1.701875 10.995 -2.34125 11.49 -3 12 C-2.88541307 10.56163249 -2.75790884 9.12429034 -2.625 7.6875 C-2.55539063 6.88699219 -2.48578125 6.08648437 -2.4140625 5.26171875 C-2 3 -2 3 0 0 Z " fill="#A8BFCF" transform="translate(89,112)"/>
<path d="M0 0 C0 0.66 0 1.32 0 2 C-1.91345327 2.53251766 -3.8309295 3.05059483 -5.75 3.5625 C-6.81734375 3.85253906 -7.8846875 4.14257812 -8.984375 4.44140625 C-11.84335927 4.97098494 -13.31597383 4.98370862 -16 4 C-15.01 4 -14.02 4 -13 4 C-13 3.34 -13 2.68 -13 2 C-11.58461283 1.66127487 -10.16762037 1.32925376 -8.75 1 C-7.56664062 0.7215625 -7.56664062 0.7215625 -6.359375 0.4375 C-4 0 -4 0 0 0 Z " fill="#364157" transform="translate(252,273)"/>
<path d="M0 0 C0 3 0 3 -1.35546875 4.75390625 C-7.43407488 10.75474769 -7.43407488 10.75474769 -12 12 C-8.32167983 7.47384007 -4.58913637 3.60575001 0 0 Z " fill="#3D7AAE" transform="translate(40,288)"/>
<path d="M0 0 C0.99 0 1.98 0 3 0 C5.85351557 3.23934303 7.86470894 6.70120583 8.3125 11 C8.1578125 11.99 8.1578125 11.99 8 13 C0 3.28571429 0 3.28571429 0 0 Z " fill="#2F3F59" transform="translate(85,206)"/>
<path d="M0 0 C0.66 1.32 1.32 2.64 2 4 C2.66 3.01 3.32 2.02 4 1 C4.21755666 6.4389165 4.10428384 10.87080814 2 16 C1.67 16 1.34 16 1 16 C0.67 10.72 0.34 5.44 0 0 Z " fill="#244463" transform="translate(344,121)"/>
<path d="M0 0 C1.32 1.32 2.64 2.64 4 4 C2.68 4.99 1.36 5.98 0 7 C-1.32 6.34 -2.64 5.68 -4 5 C-2 2 -2 2 0 0 Z " fill="#A4BCCF" transform="translate(99,259)"/>
<path d="M0 0 C0.99 0.33 1.98 0.66 3 1 C2.95875 2.0725 2.9175 3.145 2.875 4.25 C2.9885825 7.65747485 3.21273364 9.20739631 5 12 C4.01 13.485 4.01 13.485 3 15 C1.094753 9.89665983 -0.42589023 5.53657294 0 0 Z " fill="#ACC7D7" transform="translate(85,168)"/>
<path d="M0 0 C-0.66 0 -1.32 0 -2 0 C-2.33 0.66 -2.66 1.32 -3 2 C-4.92578125 2.703125 -4.92578125 2.703125 -7.3125 3.25 C-8.09238281 3.44078125 -8.87226563 3.6315625 -9.67578125 3.828125 C-12.40528247 4.02997047 -13.69765978 3.41196151 -16 2 C-14.08654673 1.46748234 -12.1690705 0.94940517 -10.25 0.4375 C-9.18265625 0.14746094 -8.1153125 -0.14257812 -7.015625 -0.44140625 C-4.15664073 -0.97098494 -2.68402617 -0.98370862 0 0 Z " fill="#3E5571" transform="translate(183,10)"/>
<path d="M0 0 C0.66 0.33 1.32 0.66 2 1 C0.68 3.31 -0.64 5.62 -2 8 C-3.65 7.67 -5.3 7.34 -7 7 C-4.66666667 4.66666667 -2.33333333 2.33333333 0 0 Z " fill="#B9D1DD" transform="translate(283,225)"/>
<path d="M0 0 C0.94875 0.350625 1.8975 0.70125 2.875 1.0625 C2.545 2.0525 2.215 3.0425 1.875 4.0625 C1.215 4.0625 0.555 4.0625 -0.125 4.0625 C-0.455 4.7225 -0.785 5.3825 -1.125 6.0625 C-2.50062854 4.77284824 -3.83266393 3.43560707 -5.125 2.0625 C-5.125 1.4025 -5.125 0.7425 -5.125 0.0625 C-3.125 -0.9375 -3.125 -0.9375 0 0 Z " fill="#4276A7" transform="translate(79.125,264.9375)"/>
<path d="M0 0 C0.66 0.99 1.32 1.98 2 3 C0.06280622 3.05406122 -1.87481921 3.09282025 -3.8125 3.125 C-4.89144531 3.14820313 -5.97039062 3.17140625 -7.08203125 3.1953125 C-10 3 -10 3 -13 1 C-4.26838235 -0.39705882 -4.26838235 -0.39705882 0 0 Z " fill="#97B2C6" transform="translate(201,251)"/>
<path d="M0 0 C1 3 1 3 0.375 5.125 C-1 7 -1 7 -3.625 7.75 C-4.800625 7.87375 -4.800625 7.87375 -6 8 C-4.55746343 4.63408134 -2.66735273 2.48952921 0 0 Z " fill="#2A4F6C" transform="translate(13,295)"/>
<path d="M0 0 C1.48454806 0.59082014 2.96254351 1.19812655 4.4375 1.8125 C5.26121094 2.14894531 6.08492187 2.48539062 6.93359375 2.83203125 C9 4 9 4 10 7 C5.76570244 5.68938409 1.92592596 4.05643741 -2 2 C-1.34 1.34 -0.68 0.68 0 0 Z " fill="#32425C" transform="translate(142,261)"/>
<path d="M0 0 C2.375 0.3125 2.375 0.3125 5 1 C7 4 7 4 7 7 C4.13302508 5.71480435 2.02392288 4.42870746 0 2 C0 1.34 0 0.68 0 0 Z " fill="#AFC8DC" transform="translate(74,256)"/>
<path d="M0 0 C2.1875 1.25 2.1875 1.25 4 3 C4 3.99 4 4.98 4 6 C2.02 6.33 0.04 6.66 -2 7 C-1.67 6.01 -1.34 5.02 -1 4 C-1.66 3.01 -2.32 2.02 -3 1 C-2.01 0.67 -1.02 0.34 0 0 Z " fill="#364681" transform="translate(93,219)"/>
<path d="M0 0 C0.66 0.99 1.32 1.98 2 3 C-4.75 6.875 -4.75 6.875 -7 8 C-5.50902342 4.2047869 -3.24299151 2.38957269 0 0 Z " fill="#233956" transform="translate(105,53)"/>
<path d="M0 0 C0.33 0.66 0.66 1.32 1 2 C-0.98 4.97 -2.96 7.94 -5 11 C-6 7 -6 7 -4.1875 3.8125 C-2 1 -2 1 0 0 Z " fill="#324057" transform="translate(330,212)"/>
<path d="M0 0 C0.66 0.33 1.32 0.66 2 1 C2 1.66 2 2.32 2 3 C1.34 3 0.68 3 0 3 C-0.04125 3.556875 -0.0825 4.11375 -0.125 4.6875 C-1.46930374 8.24030274 -4.00974189 9.70958953 -7 12 C-5.99686938 9.76224708 -5.15523165 8.1492612 -3.375 6.4375 C-1.65438868 4.97021721 -1.65438868 4.97021721 -2 2 C-1.34 1.34 -0.68 0.68 0 0 Z " fill="#B1D5E4" transform="translate(136,68)"/>
<path d="M0 0 C-3 2 -3 2 -6.125 2.5 C-7.07375 2.665 -8.0225 2.83 -9 3 C-9.33 3.66 -9.66 4.32 -10 5 C-10 4.34 -10 3.68 -10 3 C-11.32 2.67 -12.64 2.34 -14 2 C-4.58997722 -0.29612756 -4.58997722 -0.29612756 0 0 Z " fill="#D3DEE5" transform="translate(111,340)"/>
<path d="M0 0 C5.94 0.99 5.94 0.99 12 2 C12.33 2.99 12.66 3.98 13 5 C8.71 4.01 4.42 3.02 0 2 C0 1.34 0 0.68 0 0 Z " fill="#3E5070" transform="translate(152,268)"/>
<path d="M0 0 C2 1.4375 2 1.4375 4 4 C4.35442445 7.02824418 4.23347235 9.96485939 4 13 C1.8206856 11.24135754 1.06313581 10.30604 0.48828125 7.51953125 C0.43027344 6.62621094 0.37226562 5.73289063 0.3125 4.8125 C0.24675781 3.91144531 0.18101563 3.01039063 0.11328125 2.08203125 C0.07589844 1.39496094 0.03851563 0.70789063 0 0 Z " fill="#96B0C4" transform="translate(96,166)"/>
<path d="M0 0 C2 3 2 3 2 6 C2.66 6.33 3.32 6.66 4 7 C4 8.98 4 10.96 4 13 C3.67 12.34 3.34 11.68 3 11 C2.34 11 1.68 11 1 11 C-0.17571451 7.32589215 -0.07366746 3.83070817 0 0 Z " fill="#525B5B" transform="translate(341,98)"/>
<path d="M0 0 C0.33 0.66 0.66 1.32 1 2 C3.52733235 2.65555119 3.52733235 2.65555119 6 3 C3.24075815 4.80411967 2.11027897 5.0127245 -1.25 4.625 C-2.1575 4.41875 -3.065 4.2125 -4 4 C-3.34 3.67 -2.68 3.34 -2 3 C-2 2.34 -2 1.68 -2 1 C-1.34 0.67 -0.68 0.34 0 0 Z " fill="#2A4268" transform="translate(253,12)"/>
<path d="M0 0 C0 0.99 0 1.98 0 3 C-2.64 3.33 -5.28 3.66 -8 4 C-8 3.01 -8 2.02 -8 1 C-5.07175348 0.02391783 -3.04386724 -0.08226668 0 0 Z " fill="#C9D5DD" transform="translate(121,335)"/>
<path d="M0 0 C0.99 0 1.98 0 3 0 C2.33333333 1.33333333 1.66666667 2.66666667 1 4 C1.99 4.66 2.98 5.32 4 6 C-0.22528092 6 -1.04518508 5.74375671 -4 3 C-4 2.34 -4 1.68 -4 1 C-2.68 1.33 -1.36 1.66 0 2 C0 1.34 0 0.68 0 0 Z " fill="#B5CDDE" transform="translate(95,260)"/>
<path d="M0 0 C-1.38877354 3.35620271 -2.91677965 5.07298728 -6 7 C-6.66 7 -7.32 7 -8 7 C-6.13932792 2.84926997 -4.83061881 0 0 0 Z " fill="#2C3C57" transform="translate(93,226)"/>
<path d="M0 0 C0.75 1.5625 0.75 1.5625 1 4 C-0.13084437 6.50286409 -1.52139516 8.67007722 -3 11 C-3.66 11 -4.32 11 -5 11 C-3.77472971 6.94718288 -2.30119506 3.55639236 0 0 Z " fill="#343F54" transform="translate(89,73)"/>
<path d="M0 0 C0.66 0.33 1.32 0.66 2 1 C-0.64 3.97 -3.28 6.94 -6 10 C-6.66 9.67 -7.32 9.34 -8 9 C-6.85459775 7.68712379 -5.70866567 6.37470979 -4.5625 5.0625 C-3.92441406 4.33160156 -3.28632812 3.60070313 -2.62890625 2.84765625 C-1.77458541 1.87860647 -0.91348825 0.91348825 0 0 Z " fill="#95B0C4" transform="translate(127,52)"/>
<path d="M0 0 C2.64 0 5.28 0 8 0 C8 0.99 8 1.98 8 3 C5.03 3 2.06 3 -1 3 C-0.67 2.01 -0.34 1.02 0 0 Z " fill="#ADD6E8" transform="translate(196,46)"/>
<path d="M0 0 C0.66 0.66 1.32 1.32 2 2 C-0.31 2.66 -2.62 3.32 -5 4 C-5.66 3.01 -6.32 2.02 -7 1 C-3.375 -1.125 -3.375 -1.125 0 0 Z " fill="#294765" transform="translate(267,267)"/>
<path d="M0 0 C0.66 0 1.32 0 2 0 C3.7265625 1.75 3.7265625 1.75 5.625 4 C6.25664063 4.7425 6.88828125 5.485 7.5390625 6.25 C8.02117187 6.8275 8.50328125 7.405 9 8 C6 8 6 8 3 7 C1.3125 3.4375 1.3125 3.4375 0 0 Z " fill="#8AA7C0" transform="translate(102,233)"/>
<path d="M0 0 C0 2.62113708 -0.31292445 4.50935112 -1 7 C-3.475 6.01 -3.475 6.01 -6 5 C-6 4.34 -6 3.68 -6 3 C-4.02 2.01 -2.04 1.02 0 0 Z " fill="#ECC236" transform="translate(353,62)"/>
<path d="M0 0 C2.0625 0.4375 2.0625 0.4375 4 1 C3.67 2.65 3.34 4.3 3 6 C2.01 6 1.02 6 0 6 C-0.38218767 4.34385343 -0.71395102 2.67542976 -1 1 C-0.67 0.67 -0.34 0.34 0 0 Z " fill="#7D9FBA" transform="translate(92,272)"/>
<path d="M0 0 C-4.33664919 3.11696661 -7.80408388 3.55966813 -13 4 C-9.0516245 0.65906688 -5.11813443 -1.70604481 0 0 Z " fill="#7C9CB7" transform="translate(255,252)"/>
<path d="M0 0 C1.65 0.33 3.3 0.66 5 1 C5 1.66 5 2.32 5 3 C2.1875 4.5625 2.1875 4.5625 -1 6 C-1.99 5.67 -2.98 5.34 -4 5 C-3.34 4.54625 -2.68 4.0925 -2 3.625 C-1.34 3.08875 -0.68 2.5525 0 2 C0 1.34 0 0.68 0 0 Z " fill="#F7C83A" transform="translate(407,104)"/>
<path d="M0 0 C0.66 0 1.32 0 2 0 C2.33 0.99 2.66 1.98 3 3 C2.67 3.33 2.34 3.66 2 4 C1.95936168 5.66617115 1.957279 7.33388095 2 9 C0.68 8.67 -0.64 8.34 -2 8 C-2 7.34 -2 6.68 -2 6 C-1.34 6 -0.68 6 0 6 C0 4.02 0 2.04 0 0 Z " fill="#EAEFF2" transform="translate(319,78)"/>
<path d="M0 0 C0.99 0.33 1.98 0.66 3 1 C2.67 1.99 2.34 2.98 2 4 C-0.31 4 -2.62 4 -5 4 C-3.36587557 2.29159719 -2.13093906 1.06546953 0 0 Z " fill="#314863" transform="translate(143,22)"/>
<path d="M0 0 C3.63 0.33 7.26 0.66 11 1 C10.67 1.66 10.34 2.32 10 3 C6.04 3 2.08 3 -2 3 C-1.34 2.01 -0.68 1.02 0 0 Z " fill="#B5C4D4" transform="translate(59,347)"/>
<path d="M0 0 C0 0.99 0 1.98 0 3 C-2.97 3 -5.94 3 -9 3 C-8 1 -8 1 -5.0625 -0.1875 C-2 -1 -2 -1 0 0 Z " fill="#CBD7DE" transform="translate(49,346)"/>
<path d="M0 0 C0.66 0.33 1.32 0.66 2 1 C0.68 2.65 -0.64 4.3 -2 6 C-3.32 5.67 -4.64 5.34 -6 5 C-4.02 3.35 -2.04 1.7 0 0 Z " fill="#374B62" transform="translate(124,34)"/>
<path d="M0 0 C3.91211733 1.15585285 6.8745041 2.35534962 10 5 C3.49955237 4.38675022 3.49955237 4.38675022 1.0625 2.5 C0 1 0 1 0 0 Z " fill="#424F68" transform="translate(271,21)"/>
<path d="M0 0 C2.64 0 5.28 0 8 0 C7.67 1.32 7.34 2.64 7 4 C4.625 3.6875 4.625 3.6875 2 3 C1.34 2.01 0.68 1.02 0 0 Z " fill="#1F5486" transform="translate(19,323)"/>
<path d="M0 0 C-1.485 1.485 -1.485 1.485 -3 3 C-3.99 2.67 -4.98 2.34 -6 2 C-8.14255793 2.38932856 -8.14255793 2.38932856 -10 3 C-6.46873184 -0.69178035 -5.02635024 -1.19045137 0 0 Z " fill="#234466" transform="translate(286,259)"/>
<path d="M0 0 C1.98 0.495 1.98 0.495 4 1 C3.67 2.65 3.34 4.3 3 6 C1.68 4.68 0.36 3.36 -1 2 C-0.67 1.34 -0.34 0.68 0 0 Z " fill="#D6E6F0" transform="translate(87,255)"/>
<path d="M0 0 C0.66 0.33 1.32 0.66 2 1 C2 2.98 2 4.96 2 7 C1.01 7.495 1.01 7.495 0 8 C-2 5 -2 5 -1.6875 2.875 C-1 1 -1 1 0 0 Z " fill="#B3CEDE" transform="translate(99,233)"/>
<path d="M0 0 C0.33 0.66 0.66 1.32 1 2 C-1.48387097 8.74193548 -1.48387097 8.74193548 -4 10 C-2.99806563 6.20696275 -2.18975773 3.28463659 0 0 Z " fill="#AAC5D5" transform="translate(115,75)"/>
<path d="M0 0 C0.66 0.33 1.32 0.66 2 1 C0.8125 3 0.8125 3 -1 5 C-3.6875 5.25 -3.6875 5.25 -6 5 C-4.06745228 2.9754262 -2.36841312 1.57894208 0 0 Z " fill="#394860" transform="translate(136,26)"/>
<path d="M0 0 C3.875 1.75 3.875 1.75 5 4 C3.02 4 1.04 4 -1 4 C-0.67 2.68 -0.34 1.36 0 0 Z " fill="#37668F" transform="translate(115,245)"/>
<path d="M0 0 C0.33 0 0.66 0 1 0 C0.67 3.96 0.34 7.92 0 12 C-0.33 12 -0.66 12 -1 12 C-1.2226746 10.56465159 -1.42761906 9.12654475 -1.625 7.6875 C-1.74101562 6.88699219 -1.85703125 6.08648437 -1.9765625 5.26171875 C-2 3 -2 3 0 0 Z " fill="#5C6B78" transform="translate(347,160)"/>
<path d="M0 0 C0.33 0.99 0.66 1.98 1 3 C-1.97 5.475 -1.97 5.475 -5 8 C-3.8141763 4.62496331 -2.72426311 2.35277269 0 0 Z " fill="#B2C7D5" transform="translate(112,62)"/>
<path d="M0 0 C0.66 0.33 1.32 0.66 2 1 C2 1.66 2 2.32 2 3 C-0.375 3.625 -0.375 3.625 -3 4 C-3.66 3.34 -4.32 2.68 -5 2 C-2.625 0.9375 -2.625 0.9375 0 0 Z " fill="#DEE7EC" transform="translate(255,24)"/>
<path d="M0 0 C1.32 0.33 2.64 0.66 4 1 C3.01 1 2.02 1 1 1 C0.67 1.66 0.34 2.32 0 3 C0 2.01 0 1.02 0 0 Z " fill="#3838C6" transform="translate(177,278)"/>
<path d="M0 0 C0.33 0 0.66 0 1 0 C1 1.98 1 3.96 1 6 C0.67 6 0.34 6 0 6 C0 4.02 0 2.04 0 0 Z " fill="#2338C6" transform="translate(68,137)"/>
<path d="M0 0 C0.33 0 0.66 0 1 0 C1 1.65 1 3.3 1 5 C0.67 5 0.34 5 0 5 C0 3.35 0 1.7 0 0 Z " fill="#2A2AD4" transform="translate(68,148)"/>
<path d="M0 0 C0.99 0.495 0.99 0.495 2 1 C1.34 1.66 0.68 2.32 0 3 C0 2.01 0 1.02 0 0 Z " fill="#0000FF" transform="translate(79,242)"/>
<path d="M0 0 C0.66 0 1.32 0 2 0 C1.67 0.99 1.34 1.98 1 3 C0.67 2.01 0.34 1.02 0 0 Z " fill="#0000FF" transform="translate(71,241)"/>
<path d="M0 0 C0 3 0 3 0 3 Z " fill="#3750AE" transform="translate(90,217)"/>
<path d="M0 0 C0.99 1.485 0.99 1.485 2 3 C1.34 3 0.68 3 0 3 C0 2.01 0 1.02 0 0 Z " fill="#5454A9" transform="translate(82,204)"/>
<path d="M0 0 C0.66 0.66 1.32 1.32 2 2 C1.01 1.67 0.02 1.34 -1 1 C-0.67 0.67 -0.34 0.34 0 0 Z " fill="#FFD964" transform="translate(375,71)"/>
<path d="M0 0 C3 1 3 1 3 1 Z " fill="#D4D4FF" transform="translate(104,344)"/>
<path d="" fill="#2A2AD4" transform="translate(0,0)"/>
<path d="M0 0 C0.33 0.66 0.66 1.32 1 2 C0.34 1.67 -0.32 1.34 -1 1 C-0.67 0.67 -0.34 0.34 0 0 Z " fill="#55FFFF" transform="translate(88,308)"/>
<path d="" fill="#2A2AD4" transform="translate(0,0)"/>
<path d="M0 0 C0.99 0.495 0.99 0.495 2 1 C1.01 1.495 1.01 1.495 0 2 C0 1.34 0 0.68 0 0 Z " fill="#FFFF54" transform="translate(378,110)"/>
<path d="M0 0 C2 1 2 1 2 1 Z " fill="#7F7FFF" transform="translate(71,349)"/>
<path d="M0 0 C2 1 2 1 2 1 Z " fill="#BFBFFF" transform="translate(79,348)"/>
<path d="" fill="#0000FF" transform="translate(0,0)"/>
<path d="" fill="#7F7F7F" transform="translate(0,0)"/>
<path d="" fill="#3F3FBF" transform="translate(0,0)"/>
<path d="" fill="#0000FF" transform="translate(0,0)"/>
<path d="" fill="#7F7F7F" transform="translate(0,0)"/>
<path d="" fill="#1F3FBF" transform="translate(0,0)"/>
<path d="" fill="#2AAA2A" transform="translate(0,0)"/>
<path d="M0 0 C2 1 2 1 2 1 Z " fill="#FFFF00" transform="translate(334,75)"/>
<path d="M0 0 C2 1 2 1 2 1 Z " fill="#0000FF" transform="translate(85,74)"/>
<path d="" fill="#0000FF" transform="translate(0,0)"/>
<path d="M0 0 C2 1 2 1 2 1 Z " fill="#0000FF" transform="translate(105,43)"/>
<path d="M0 0 C2 1 2 1 2 1 Z " fill="#3F3FBF" transform="translate(129,27)"/>
<path d="M0 0 C2 1 2 1 2 1 Z " fill="#0000FF" transform="translate(255,12)"/>
<path d="" fill="#FFFFFF" transform="translate(0,0)"/>
<path d="" fill="#FFFFFF" transform="translate(0,0)"/>
<path d="" fill="#FFFFFF" transform="translate(0,0)"/>
<path d="" fill="#FFFFFF" transform="translate(0,0)"/>
<path d="" fill="#FFFFFF" transform="translate(0,0)"/>
<path d="" fill="#7FFFFF" transform="translate(0,0)"/>
<path d="" fill="#FFFFFF" transform="translate(0,0)"/>
<path d="" fill="#0000FF" transform="translate(0,0)"/>
<path d="" fill="#FFFFFF" transform="translate(0,0)"/>
<path d="" fill="#7F7F7F" transform="translate(0,0)"/>
<path d="" fill="#7F7FFF" transform="translate(0,0)"/>
<path d="" fill="#7F7F7F" transform="translate(0,0)"/>
<path d="" fill="#555555" transform="translate(0,0)"/>
<path d="" fill="#0000FF" transform="translate(0,0)"/>
<path d="" fill="#7FFFFF" transform="translate(0,0)"/>
<path d="" fill="#000000" transform="translate(0,0)"/>
<path d="" fill="#FFFFFF" transform="translate(0,0)"/>
<path d="" fill="#7FFFFF" transform="translate(0,0)"/>
<path d="" fill="#7F7F7F" transform="translate(0,0)"/>
<path d="" fill="#FFFFFF" transform="translate(0,0)"/>
<path d="" fill="#FFFFFF" transform="translate(0,0)"/>
<path d="" fill="#000000" transform="translate(0,0)"/>
<path d="" fill="#AAAAAA" transform="translate(0,0)"/>
<path d="" fill="#7F7FFF" transform="translate(0,0)"/>
<path d="" fill="#0000FF" transform="translate(0,0)"/>
<path d="" fill="#00FFFF" transform="translate(0,0)"/>
<path d="" fill="#000000" transform="translate(0,0)"/>
<path d="" fill="#0000FF" transform="translate(0,0)"/>
<path d="" fill="#00FFFF" transform="translate(0,0)"/>
<path d="" fill="#000000" transform="translate(0,0)"/>
<path d="" fill="#7F7F7F" transform="translate(0,0)"/>
<path d="" fill="#0000FF" transform="translate(0,0)"/>
<path d="" fill="#0000FF" transform="translate(0,0)"/>
<path d="" fill="#7F7F7F" transform="translate(0,0)"/>
<path d="" fill="#5555AA" transform="translate(0,0)"/>
<path d="" fill="#3F7F7F" transform="translate(0,0)"/>
<path d="" fill="#0000FF" transform="translate(0,0)"/>
<path d="" fill="#7F7F7F" transform="translate(0,0)"/>
<path d="" fill="#7F7F7F" transform="translate(0,0)"/>
<path d="" fill="#7F7F7F" transform="translate(0,0)"/>
<path d="" fill="#5555AA" transform="translate(0,0)"/>
<path d="" fill="#0000FF" transform="translate(0,0)"/>
<path d="" fill="#0000FF" transform="translate(0,0)"/>
<path d="" fill="#5555AA" transform="translate(0,0)"/>
<path d="" fill="#5555AA" transform="translate(0,0)"/>
<path d="" fill="#000000" transform="translate(0,0)"/>
<path d="" fill="#0000FF" transform="translate(0,0)"/>
<path d="" fill="#0000FF" transform="translate(0,0)"/>
<path d="" fill="#0000FF" transform="translate(0,0)"/>
<path d="" fill="#7F7F7F" transform="translate(0,0)"/>
<path d="" fill="#0000FF" transform="translate(0,0)"/>
<path d="" fill="#0000FF" transform="translate(0,0)"/>
<path d="" fill="#0000FF" transform="translate(0,0)"/>
<path d="" fill="#0000FF" transform="translate(0,0)"/>
<path d="" fill="#0000FF" transform="translate(0,0)"/>
<path d="" fill="#7F7F7F" transform="translate(0,0)"/>
<path d="" fill="#0000FF" transform="translate(0,0)"/>
<path d="" fill="#0000FF" transform="translate(0,0)"/>
<path d="" fill="#5555AA" transform="translate(0,0)"/>
<path d="" fill="#7F7F7F" transform="translate(0,0)"/>
<path d="" fill="#7F7F7F" transform="translate(0,0)"/>
<path d="" fill="#000000" transform="translate(0,0)"/>
<path d="" fill="#7F7F7F" transform="translate(0,0)"/>
<path d="" fill="#7F7F7F" transform="translate(0,0)"/>
<path d="" fill="#0000FF" transform="translate(0,0)"/>
<path d="" fill="#0000FF" transform="translate(0,0)"/>
<path d="" fill="#3F7F7F" transform="translate(0,0)"/>
<path d="" fill="#00FFFF" transform="translate(0,0)"/>
<path d="" fill="#BFBF7F" transform="translate(0,0)"/>
<path d="" fill="#0000FF" transform="translate(0,0)"/>
<path d="" fill="#FF7F7F" transform="translate(0,0)"/>
<path d="" fill="#0000FF" transform="translate(0,0)"/>
<path d="" fill="#5555AA" transform="translate(0,0)"/>
<path d="" fill="#0000FF" transform="translate(0,0)"/>
<path d="" fill="#0000FF" transform="translate(0,0)"/>
<path d="" fill="#7F7F7F" transform="translate(0,0)"/>
<path d="" fill="#0000FF" transform="translate(0,0)"/>
<path d="" fill="#FFFF00" transform="translate(0,0)"/>
<path d="" fill="#0000FF" transform="translate(0,0)"/>
<path d="" fill="#0000FF" transform="translate(0,0)"/>
<path d="" fill="#0000FF" transform="translate(0,0)"/>
<path d="" fill="#0000FF" transform="translate(0,0)"/>
<path d="" fill="#FFFF00" transform="translate(0,0)"/>
<path d="" fill="#D4D455" transform="translate(0,0)"/>
<path d="" fill="#FFAA55" transform="translate(0,0)"/>
<path d="" fill="#FFFF7F" transform="translate(0,0)"/>
<path d="" fill="#FFFF7F" transform="translate(0,0)"/>
<path d="" fill="#0000FF" transform="translate(0,0)"/>
<path d="" fill="#FFAA55" transform="translate(0,0)"/>
<path d="" fill="#FFFF00" transform="translate(0,0)"/>
<path d="" fill="#FFFF7F" transform="translate(0,0)"/>
<path d="" fill="#0000FF" transform="translate(0,0)"/>
<path d="" fill="#7F7F7F" transform="translate(0,0)"/>
<path d="" fill="#0000FF" transform="translate(0,0)"/>
<path d="" fill="#FFAA55" transform="translate(0,0)"/>
<path d="" fill="#FFFF00" transform="translate(0,0)"/>
<path d="" fill="#FFFF00" transform="translate(0,0)"/>
<path d="" fill="#FFFF00" transform="translate(0,0)"/>
<path d="" fill="#7F7F7F" transform="translate(0,0)"/>
<path d="" fill="#FFBF3F" transform="translate(0,0)"/>
<path d="" fill="#FFFF00" transform="translate(0,0)"/>
<path d="" fill="#0000FF" transform="translate(0,0)"/>
<path d="" fill="#7F7F7F" transform="translate(0,0)"/>
<path d="" fill="#FFFF00" transform="translate(0,0)"/>
<path d="" fill="#7F7F7F" transform="translate(0,0)"/>
<path d="" fill="#FFFF00" transform="translate(0,0)"/>
<path d="" fill="#FF7F7F" transform="translate(0,0)"/>
<path d="" fill="#FFFF00" transform="translate(0,0)"/>
<path d="" fill="#CC9966" transform="translate(0,0)"/>
<path d="" fill="#7F7F7F" transform="translate(0,0)"/>
<path d="" fill="#FFFF00" transform="translate(0,0)"/>
<path d="" fill="#FFFF00" transform="translate(0,0)"/>
<path d="" fill="#FFFF00" transform="translate(0,0)"/>
<path d="" fill="#FFFF00" transform="translate(0,0)"/>
<path d="" fill="#FFFF00" transform="translate(0,0)"/>
<path d="" fill="#000000" transform="translate(0,0)"/>
<path d="" fill="#FF7F7F" transform="translate(0,0)"/>
<path d="" fill="#0000FF" transform="translate(0,0)"/>
<path d="" fill="#7F7F7F" transform="translate(0,0)"/>
<path d="" fill="#7F7F7F" transform="translate(0,0)"/>
<path d="" fill="#0000FF" transform="translate(0,0)"/>
<path d="" fill="#5555AA" transform="translate(0,0)"/>
<path d="" fill="#5555AA" transform="translate(0,0)"/>
<path d="" fill="#7F7F7F" transform="translate(0,0)"/>
<path d="" fill="#7F7F7F" transform="translate(0,0)"/>
<path d="" fill="#0000FF" transform="translate(0,0)"/>
<path d="" fill="#0000FF" transform="translate(0,0)"/>
<path d="" fill="#7F7F7F" transform="translate(0,0)"/>
<path d="" fill="#7F7F7F" transform="translate(0,0)"/>
<path d="" fill="#0000FF" transform="translate(0,0)"/>
<path d="" fill="#0000FF" transform="translate(0,0)"/>
<path d="" fill="#0000FF" transform="translate(0,0)"/>
<path d="" fill="#0000FF" transform="translate(0,0)"/>
</svg>
